<?xml version="1.0" standalone="no"?>
<!DOCTYPE svg PUBLIC "-//W3C//DTD SVG 20010904//EN"
 "http://www.w3.org/TR/2001/REC-SVG-20010904/DTD/svg10.dtd">
<svg version="1.0" xmlns="http://www.w3.org/2000/svg"
 width="1028.000000pt" height="1600.000000pt" viewBox="0 0 1028.000000 1600.000000"
 preserveAspectRatio="xMidYMid meet">

<g transform="translate(0.000000,1600.000000) scale(0.100000,-0.100000)"
fill="#000000" stroke="none">
<path d="M5008 15330 c-14 -10 -48 -22 -76 -26 -44 -6 -52 -4 -52 10 0 22 -23
20 -44 -3 -22 -24 -86 -37 -96 -20 -6 9 -15 6 -35 -10 -28 -22 -75 -29 -75
-11 0 18 -28 11 -43 -10 -11 -16 -54 -31 -166 -60 -84 -22 -196 -56 -249 -76
-196 -73 -532 -254 -487 -262 10 -3 21 1 23 7 4 13 32 15 32 2 0 -5 -19 -20
-42 -34 -24 -14 -76 -50 -117 -81 -115 -86 -211 -248 -263 -444 -29 -113 -36
-334 -13 -436 19 -88 31 -99 14 -14 -8 41 -8 81 0 150 30 255 154 444 355 541
117 57 222 81 516 117 269 33 411 67 535 126 44 22 51 23 64 9 14 -13 13 -17
-1 -32 -15 -14 -19 -14 -35 -2 -16 13 -17 12 -5 -3 11 -14 7 -19 -41 -37 -124
-46 -267 -75 -526 -107 -239 -29 -326 -46 -425 -81 -121 -43 -212 -109 -266
-193 -32 -50 -95 -189 -88 -196 2 -2 13 -1 25 2 13 4 28 22 38 47 48 120 148
228 264 287 78 39 116 48 61 14 -84 -51 -161 -118 -207 -178 -54 -73 -91 -141
-71 -134 186 73 368 154 368 166 0 16 113 132 130 132 6 0 3 -12 -9 -28 -11
-16 -23 -41 -27 -56 -6 -26 -5 -27 15 -17 11 7 21 18 21 25 0 7 14 33 31 59
41 62 105 92 224 106 110 13 170 14 140 1 -12 -4 -27 -15 -34 -24 -11 -14 -5
-13 35 5 27 11 121 50 209 86 163 66 194 81 140 69 -43 -10 -19 9 30 24 151
48 315 165 411 294 50 66 53 66 22 -2 -13 -28 -55 -80 -106 -131 -46 -46 -78
-82 -71 -79 8 3 111 46 229 94 208 86 217 91 279 152 35 34 66 61 68 59 2 -2
-11 -23 -28 -47 -24 -33 -27 -41 -13 -35 11 4 31 11 45 17 15 5 35 25 45 44
10 18 24 34 31 34 20 0 72 -72 93 -128 11 -29 29 -110 40 -180 19 -115 44
-229 52 -237 2 -2 1 33 -1 78 -2 45 3 127 10 182 8 55 14 128 14 163 0 43 3
62 12 62 18 0 17 -99 -2 -220 -19 -123 -19 -201 1 -275 41 -161 171 -276 344
-307 126 -22 264 25 361 121 45 46 109 148 109 176 0 4 -17 -15 -38 -42 -105
-132 -218 -183 -333 -149 -69 20 -121 63 -153 128 -34 68 -34 127 0 215 32 84
35 156 9 201 -24 39 -51 48 -100 32 -48 -16 -62 -42 -68 -127 -5 -82 -25 -123
-61 -123 -12 0 -31 9 -42 21 -30 34 -23 100 21 204 47 109 48 110 74 96 14 -8
21 -8 21 -1 0 6 16 8 43 5 41 -5 41 -5 -28 29 -83 41 -277 108 -389 137 -140
35 -144 36 -138 64 5 29 -6 31 -46 11 -38 -19 -106 0 -110 32 -4 26 -8 26 -42
7 -42 -24 -130 -16 -130 11 0 18 -30 17 -54 -1 -27 -20 -116 -20 -116 -1 0 24
-16 27 -42 6z m11 -115 c-3 -2 -224 -79 -491 -169 -471 -160 -508 -169 -508
-135 0 4 21 14 47 23 33 11 50 13 59 5 17 -14 51 -3 56 19 4 12 73 40 251 101
152 51 248 89 252 98 4 12 2 13 -8 5 -21 -18 -480 -173 -498 -169 -12 3 -15
-1 -11 -18 2 -14 -2 -24 -13 -29 -21 -8 -35 0 -35 20 0 13 -2 13 -14 1 -8 -8
-36 -20 -62 -27 -47 -13 -50 -13 -57 16 -1 4 14 13 33 20 19 7 27 13 18 13 -9
1 -28 -3 -42 -9 -14 -5 -26 -6 -26 -1 0 20 272 119 440 160 121 30 124 31 114
22 -5 -5 -109 -42 -231 -82 -123 -40 -223 -77 -223 -81 0 -4 6 -5 13 -3 99 38
432 143 439 139 4 -3 8 -1 8 5 0 22 269 85 287 67 3 -2 -23 -13 -57 -24 -35
-10 -59 -21 -54 -24 5 -3 50 9 99 27 63 23 109 33 154 34 35 0 62 -1 60 -4z
m150 -5 c-9 -5 -27 -12 -40 -14 -13 -3 -25 -5 -26 -7 -2 -1 -6 -2 -10 -4 -5
-1 -21 -7 -38 -14 -16 -7 -104 -38 -195 -68 -91 -31 -169 -59 -174 -64 -14
-13 24 -1 298 93 142 49 261 86 264 84 2 -3 -2 -16 -10 -28 -12 -18 -72 -42
-269 -107 -140 -47 -270 -85 -289 -85 -30 -1 -36 3 -38 23 -2 13 -7 20 -10 14
-4 -5 -59 -27 -122 -47 -63 -21 -124 -42 -135 -47 -11 -5 -79 -29 -151 -53
-93 -31 -136 -41 -147 -34 -23 13 -21 25 6 31 12 3 239 79 505 169 377 128
496 165 540 166 42 2 53 -1 41 -8z m33 -87 c-7 -12 -102 -50 -304 -119 -240
-83 -297 -99 -316 -91 -12 6 -20 13 -16 16 7 8 638 219 642 215 2 -1 -1 -11
-6 -21z m-41 -61 c-5 -10 -16 -23 -23 -29 -7 -6 -126 -49 -265 -96 -236 -80
-251 -84 -256 -66 -4 13 0 23 11 27 42 16 528 181 535 181 4 1 3 -7 -2 -17z
m-524 -67 c8 -9 14 -17 12 -19 -10 -8 -486 -166 -500 -166 -9 0 -21 6 -27 13
-8 10 44 31 241 99 139 48 253 87 255 87 2 1 10 -6 19 -14z m406 -64 c-40 -37
-107 -87 -148 -110 -80 -46 -81 -46 -106 1 -2 4 22 25 54 48 31 23 57 43 57
45 0 1 -30 -12 -67 -31 -137 -69 -318 -125 -397 -123 -41 1 -41 1 25 23 54 18
64 24 53 34 -17 16 -18 54 -2 70 17 17 48 15 70 -5 24 -22 23 -49 -4 -67 -14
-10 -17 -16 -8 -16 7 0 23 9 34 19 20 18 463 179 496 180 8 0 -17 -30 -57 -68z
m-546 -46 c-9 -17 -26 -28 -59 -37 -27 -6 -48 -15 -48 -20 0 -11 0 -10 51 7
34 12 44 13 51 3 4 -7 8 -16 8 -19 0 -12 -148 -59 -183 -59 -56 0 -52 17 8 36
30 10 53 20 50 22 -3 3 -35 -5 -73 -18 -46 -16 -77 -21 -96 -16 -16 4 -25 10
-22 14 8 8 296 110 313 111 8 1 8 -5 0 -24z m-607 -35 c-14 -26 -4 -77 18 -90
15 -8 15 -9 1 -10 -39 0 -64 84 -34 114 22 22 30 14 15 -14z m89 6 c16 -19 10
-66 -10 -79 -44 -28 -95 25 -69 72 13 25 61 29 79 7z m-127 -38 c3 -24 8 -51
13 -62 6 -14 4 -17 -11 -14 -22 4 -48 71 -39 99 11 35 33 21 37 -23z m-38 -65
c5 -17 3 -23 -8 -23 -21 0 -36 31 -36 74 0 47 23 53 31 7 3 -20 9 -46 13 -58z
m-48 -31 c-3 -2 -12 -2 -20 1 -21 8 -32 73 -15 93 11 13 15 8 26 -37 7 -28 11
-54 9 -57z m2398 92 c20 -19 20 -33 0 -95 -34 -103 -7 -213 75 -303 l26 -29
-31 21 c-48 33 -104 100 -126 150 -38 84 -36 214 3 253 23 23 33 24 53 3z
m-2452 -51 c3 -16 7 -34 9 -42 2 -8 -3 -16 -12 -18 -20 -5 -43 69 -26 86 14
14 24 6 29 -26z m-33 -65 c1 -3 -23 -20 -52 -36 -29 -17 -80 -54 -112 -84 -32
-29 -55 -46 -50 -38 35 60 93 137 137 180 l52 52 12 -34 c7 -18 13 -36 13 -40z"/>
<path d="M3935 14850 c3 -5 10 -10 16 -10 5 0 9 5 9 10 0 6 -7 10 -16 10 -8 0
-12 -4 -9 -10z"/>
<path d="M3904 14837 c-8 -21 -3 -29 13 -19 8 5 9 13 3 22 -7 12 -10 12 -16
-3z"/>
<path d="M3960 14815 c0 -8 5 -15 10 -15 6 0 10 7 10 15 0 8 -4 15 -10 15 -5
0 -10 -7 -10 -15z"/>
<path d="M3926 14803 c-11 -11 -6 -23 9 -23 8 0 15 4 15 9 0 13 -16 22 -24 14z"/>
<path d="M3587 14682 c-63 -64 -77 -92 -22 -43 19 17 49 38 65 46 32 16 35 22
22 42 -6 9 -25 -5 -65 -45z"/>
<path d="M5656 15058 c-21 -29 -20 -51 2 -71 22 -20 73 -22 90 -5 18 18 15 74
-5 89 -15 11 -16 11 -5 -1 27 -31 8 -80 -33 -80 -43 0 -63 58 -27 79 9 6 12
11 5 11 -6 0 -19 -10 -27 -22z"/>
<path d="M5745 14959 c-4 -6 -5 -12 -2 -15 2 -3 7 2 10 11 7 17 1 20 -8 4z"/>
<path d="M5755 14890 c-3 -6 1 -7 9 -4 18 7 21 14 7 14 -6 0 -13 -4 -16 -10z"/>
<path d="M5355 14799 c-4 -6 -5 -12 -2 -15 2 -3 7 2 10 11 7 17 1 20 -8 4z"/>
<path d="M6281 14785 c-69 -59 -82 -197 -25 -278 83 -118 264 -124 350 -12 15
20 24 38 20 42 -3 3 -6 1 -6 -6 0 -9 -9 -12 -25 -9 -22 5 -25 2 -25 -23 0 -17
-7 -32 -17 -37 -31 -16 -43 -3 -43 47 0 52 -12 71 -46 71 -37 0 -53 -11 -85
-56 -41 -60 -95 -58 -117 5 -15 43 11 88 73 124 27 16 55 36 62 45 32 43 -5
112 -59 112 -15 0 -40 -11 -57 -25z m94 -46 c0 -17 -14 -33 -53 -59 -30 -19
-60 -46 -68 -60 l-13 -25 -1 26 c0 45 31 118 62 144 27 23 33 24 52 12 11 -8
21 -25 21 -38z"/>
<path d="M5575 14785 l-30 -14 38 5 c20 4 73 0 117 -7 83 -13 109 -7 76 17
-26 19 -161 18 -201 -1z"/>
<path d="M5625 14703 c-16 -9 -42 -26 -56 -38 l-26 -22 116 -10 c147 -14 171
-2 112 58 -24 23 -38 29 -73 29 -24 -1 -56 -8 -73 -17z"/>
<path d="M5425 14680 c-10 -11 -14 -20 -9 -20 5 0 15 9 22 20 7 11 11 20 9 20
-2 0 -12 -9 -22 -20z"/>
<path d="M2636 14646 c-194 -82 -279 -276 -232 -527 17 -90 84 -314 92 -307 2
3 -5 34 -15 69 -59 189 -78 331 -62 440 15 97 50 168 112 223 148 133 386 96
456 -72 7 -17 16 -59 20 -92 l6 -60 24 36 c19 28 23 43 19 70 -17 90 -72 168
-147 208 -44 25 -68 30 -134 33 -68 3 -89 0 -139 -21z"/>
<path d="M3303 14507 c-135 -142 -246 -306 -334 -492 l-51 -109 22 -18 c31
-25 62 -22 90 7 21 23 24 34 21 88 -6 105 -4 117 15 138 27 29 81 22 108 -14
32 -44 27 -106 -19 -206 -48 -108 -56 -162 -27 -201 20 -26 20 -29 4 -32 -9
-2 5 -5 31 -5 27 -1 50 -3 53 -5 2 -3 -8 -34 -23 -71 -20 -52 -31 -67 -47 -68
-17 -1 -18 -2 -3 -6 21 -6 22 -32 1 -40 -11 -4 -12 -8 -4 -13 9 -6 9 -13 1
-28 -6 -11 -11 -32 -11 -46 0 -24 -3 -26 -44 -26 -28 0 -53 7 -72 21 l-29 21
28 -26 c21 -20 39 -26 72 -26 38 0 43 -2 38 -19 -4 -15 -16 -21 -47 -24 l-41
-4 43 -1 c34 -2 42 -6 42 -21 0 -11 -6 -22 -12 -24 -10 -4 -10 -6 0 -6 6 -1
12 -10 12 -20 0 -11 -6 -22 -12 -24 -10 -4 -10 -6 0 -6 6 -1 12 -10 12 -21 0
-11 -6 -20 -12 -20 -10 0 -10 -2 -1 -8 8 -5 12 -26 10 -55 -1 -26 1 -47 5 -47
13 0 9 -40 -4 -40 -7 0 -5 -5 5 -11 9 -5 17 -17 17 -24 0 -8 -8 -15 -17 -16
-16 0 -16 -1 1 -8 17 -6 42 -83 60 -178 1 -7 6 -16 11 -20 4 -4 5 3 2 17 -53
207 -61 257 -60 405 0 130 4 163 26 248 15 54 49 146 77 204 27 58 50 120 50
137 0 17 -11 76 -25 131 -29 116 -32 202 -10 328 20 114 49 206 91 290 19 37
33 67 30 67 -2 0 -35 -33 -73 -73z"/>
<path d="M6575 14570 c-3 -6 1 -7 10 -4 8 4 23 0 33 -7 15 -13 16 -12 3 4 -15
19 -36 22 -46 7z"/>
<path d="M4760 14525 c13 -14 26 -25 28 -25 3 0 -5 11 -18 25 -13 14 -26 25
-28 25 -3 0 5 -11 18 -25z"/>
<path d="M4152 14505 c-38 -32 -54 -84 -17 -57 6 4 15 16 21 27 8 14 23 20 50
21 68 2 71 3 50 19 -29 22 -71 18 -104 -10z"/>
<path d="M4298 14523 c7 -3 16 -2 19 1 4 3 -2 6 -13 5 -11 0 -14 -3 -6 -6z"/>
<path d="M4660 14436 c0 -2 8 -10 18 -17 15 -13 16 -12 3 4 -13 16 -21 21 -21
13z"/>
<path d="M4610 14396 c0 -2 8 -10 18 -17 15 -13 16 -12 3 4 -13 16 -21 21 -21
13z"/>
<path d="M6679 14367 c-20 -8 -65 -33 -100 -56 -35 -23 -83 -47 -106 -53 -67
-19 -60 -34 16 -35 36 0 83 -8 103 -17 80 -35 139 -132 123 -205 -14 -65 -71
-103 -126 -83 -24 9 -24 9 9 16 61 14 67 81 10 116 -45 27 -95 33 -170 20
l-65 -12 -64 -208 c-35 -115 -67 -206 -70 -202 -4 4 -12 24 -19 44 -27 87
-144 142 -252 118 -62 -13 -140 -60 -171 -104 -47 -67 -95 -151 -86 -154 5 -2
7 -37 3 -80 -4 -43 -1 -110 5 -152 15 -101 74 -296 82 -273 5 14 12 9 39 -27
18 -25 30 -37 26 -27 -3 10 -6 25 -6 33 0 9 -4 13 -8 10 -28 -17 -92 110 -92
179 1 17 5 15 30 -13 17 -18 30 -27 30 -21 0 7 -16 26 -35 43 -30 26 -37 40
-42 84 -3 28 -2 52 3 52 20 -1 43 -28 47 -55 2 -17 5 2 6 41 1 84 13 124 54
181 35 50 70 75 109 79 29 4 41 -19 16 -29 -10 -4 -10 -6 0 -6 8 -1 16 8 19
19 6 24 12 25 40 5 30 -21 57 -79 49 -108 -7 -28 -44 -69 -59 -64 -6 2 -23
-11 -39 -29 -58 -65 -22 -164 60 -164 47 0 115 41 142 85 42 68 33 25 -14 -71
l-48 -96 -18 30 c-23 37 -63 49 -96 27 -13 -8 -24 -20 -24 -25 0 -6 9 -1 21
11 20 20 48 19 77 -3 15 -13 16 -70 0 -86 -17 -17 -58 -15 -82 6 -21 17 -21
17 -2 -5 11 -14 30 -23 47 -23 l27 0 -18 -47 c-33 -90 -34 -101 -4 -58 15 22
31 42 36 43 4 2 8 9 8 17 0 7 6 18 14 25 8 6 42 52 76 101 34 49 66 87 71 84
5 -4 15 -18 23 -33 12 -23 12 -30 1 -46 -13 -17 -15 -17 -40 10 l-27 29 21
-29 c25 -34 25 -35 6 -60 -15 -20 -15 -20 -31 0 -14 18 -15 18 -4 -4 9 -19 8
-27 -6 -43 -16 -18 -18 -18 -38 -2 -21 18 -21 18 -2 -4 18 -22 18 -24 1 -43
-10 -11 -22 -17 -26 -14 -5 3 -6 -1 -3 -9 3 -9 -6 -24 -22 -36 -15 -11 -24
-21 -20 -21 14 0 -27 -50 -43 -51 -9 0 -11 -3 -4 -5 8 -4 3 -23 -18 -65 -17
-32 -33 -59 -37 -59 -4 0 -8 -14 -8 -32 -1 -18 -6 -34 -11 -35 -5 -2 -7 -19
-5 -38 3 -29 1 -35 -14 -36 -11 0 -14 -3 -6 -6 6 -2 12 -20 12 -40 0 -42 -22
-41 -31 3 l-5 29 -8 -32 c-8 -34 11 -124 38 -184 15 -31 13 -10 -2 31 -5 13
-3 13 11 2 18 -16 42 -80 32 -90 -3 -3 -10 0 -15 8 -6 8 -10 11 -9 5 0 -5 7
-21 15 -35 11 -18 14 -20 10 -5 -5 17 -3 16 15 -5 l22 -25 -8 25 c-73 233 -55
394 63 567 22 32 90 116 152 188 179 207 239 322 260 492 20 161 45 213 120
251 54 27 90 28 166 3 32 -11 60 -18 62 -17 1 2 -29 20 -68 40 -83 44 -102 71
-76 110 18 29 54 41 90 32 12 -3 51 -30 84 -60 87 -77 156 -85 198 -21 16 24
16 28 1 42 -14 14 -23 15 -72 4 -95 -21 -165 20 -165 98 0 39 25 85 41 76 5
-4 9 -2 9 4 0 6 16 18 35 27 48 22 97 12 146 -33 21 -19 39 -31 39 -26 0 20
-99 150 -152 199 -30 29 -74 62 -98 74 -53 27 -133 35 -181 17z m-86 -537
c-18 -4 -40 -13 -48 -20 -8 -7 -15 -9 -15 -4 -1 5 -8 -4 -16 -20 l-16 -29 -26
27 c-23 23 -25 28 -12 37 8 5 25 8 38 6 12 -2 22 -1 22 3 0 5 24 8 53 8 45 -1
48 -2 20 -8z m-114 -103 l-12 -27 -31 27 -31 28 28 -31 c22 -24 28 -40 25 -65
-2 -24 -7 -33 -18 -31 -12 3 -13 1 -2 -9 14 -15 16 -85 2 -94 -5 -3 -10 -1
-10 6 0 7 -3 10 -6 7 -3 -4 -1 -15 5 -26 6 -11 8 -35 4 -53 -6 -30 -7 -31 -20
-14 -15 22 -17 12 -3 -15 13 -24 -8 -78 -22 -58 -6 9 -7 5 -3 -9 4 -14 -1 -36
-12 -55 -33 -60 -33 -60 -59 -22 -28 41 -27 35 -13 71 l10 28 25 -40 c13 -22
24 -35 24 -30 0 6 -11 26 -24 45 -19 29 -22 40 -14 63 9 24 13 26 27 15 13
-10 13 -9 -2 8 -12 15 -15 30 -11 53 l7 32 26 -23 c25 -22 25 -22 -1 8 -33 36
-41 101 -10 90 15 -5 15 -5 -1 8 -18 14 -18 17 -3 70 9 31 31 72 48 92 l31 35
29 -29 c26 -26 28 -31 17 -55z m-410 -38 c73 -15 134 -58 161 -113 19 -40 21
-55 15 -104 l-8 -57 -12 58 c-6 32 -21 70 -32 85 -59 80 -172 115 -253 78 -25
-12 -48 -25 -51 -30 -10 -13 -39 1 -39 19 0 8 7 15 15 15 8 0 15 4 15 9 0 14
58 34 85 29 13 -3 22 -2 20 3 -5 7 9 16 27 18 4 1 29 -4 57 -10z m-228 -138
c-16 -20 -32 -46 -36 -59 -5 -18 -12 -21 -28 -17 -19 5 -20 5 -4 -5 21 -14 25
-110 4 -110 -20 0 -37 22 -37 48 0 44 31 130 61 172 29 40 31 41 49 25 19 -17
18 -18 -9 -54z m479 -292 c11 -25 11 -33 -2 -45 -12 -12 -17 -10 -37 17 -20
26 -21 35 -12 56 14 30 32 20 51 -28z m-360 -738 c1 -3 5 -25 9 -48 7 -39 7
-41 -10 -30 -11 7 -19 17 -19 23 0 6 -3 26 -6 43 -6 26 -4 30 10 25 9 -3 16
-9 16 -13z"/>
<path d="M6405 13660 c10 -11 20 -20 23 -20 3 0 -3 9 -13 20 -10 11 -20 20
-23 20 -3 0 3 -9 13 -20z"/>
<path d="M6390 13581 c5 -11 15 -23 21 -27 6 -3 3 5 -6 20 -20 30 -30 35 -15
7z"/>
<path d="M4340 14356 c7 -7 13 -7 20 0 6 6 3 10 -10 10 -13 0 -16 -4 -10 -10z"/>
<path d="M4216 14352 c-3 -5 5 -8 17 -8 16 1 22 -5 22 -19 0 -14 -6 -20 -23
-19 -15 0 -19 -3 -13 -9 12 -12 40 -2 47 18 11 28 -35 61 -50 37z"/>
<path d="M4590 14332 c0 -4 9 -8 19 -8 11 0 17 4 15 8 -3 4 -12 8 -20 8 -8 0
-14 -4 -14 -8z"/>
<path d="M4390 14302 c0 -6 -8 -13 -17 -15 -16 -4 -16 -5 -1 -6 18 -1 34 16
24 26 -3 4 -6 1 -6 -5z"/>
<path d="M4688 14293 c7 -3 16 -2 19 1 4 3 -2 6 -13 5 -11 0 -14 -3 -6 -6z"/>
<path d="M4527 14253 c12 -2 24 -12 26 -21 3 -12 5 -10 6 6 1 18 -4 22 -26 21
-23 -1 -24 -2 -6 -6z"/>
<path d="M5195 14246 c-22 -7 -54 -20 -72 -29 -31 -17 -32 -17 -42 11 l-11 27
5 -30 c5 -24 0 -36 -20 -55 -14 -13 -25 -19 -25 -14 0 5 -10 -9 -21 -31 -27
-51 -28 -52 -40 -35 -8 11 -9 9 -4 -8 6 -21 -18 -106 -37 -126 -4 -6 -8 -19
-8 -30 0 -57 -93 -167 -175 -209 -148 -75 -434 -51 -666 56 -30 14 -71 30 -91
37 -20 6 -39 16 -42 23 -3 8 -5 9 -5 1 -1 -16 -81 4 -81 20 0 7 -3 7 -8 -2
-15 -22 -71 -3 -88 30 -9 17 -18 28 -21 25 -2 -3 3 -17 12 -31 14 -20 14 -26
4 -26 -8 0 -24 -3 -36 -6 -17 -5 -26 2 -45 30 -13 20 -27 36 -31 36 -4 0 4
-15 18 -34 l26 -34 -32 -11 c-18 -6 -33 -10 -35 -9 -1 2 -16 20 -33 42 -17 21
-31 35 -31 31 0 -4 11 -20 25 -37 31 -37 31 -42 -1 -57 -24 -11 -29 -9 -64 29
-20 22 -41 40 -46 40 -4 0 11 -19 34 -43 l42 -43 -26 -25 c-36 -33 -61 -91
-74 -173 -12 -74 -34 -123 -60 -131 -8 -3 -30 -1 -48 4 -41 12 -68 -9 -52 -40
20 -37 65 -20 151 56 62 55 92 75 144 95 l25 10 -22 -31 c-34 -45 -32 -122 4
-176 36 -55 103 -87 168 -81 76 8 134 48 187 130 54 85 133 166 188 193 96 48
236 14 302 -73 141 -186 -104 -427 -268 -263 -91 91 -44 242 86 276 l50 13
-47 7 c-101 15 -188 -66 -188 -175 1 -134 124 -228 261 -199 39 9 62 22 99 58
78 75 90 173 34 269 -23 39 -24 44 -8 37 205 -90 355 -87 463 11 63 57 88 117
101 241 14 139 32 184 99 254 40 43 73 66 116 84 33 14 52 25 43 25 -31 0
-116 -37 -160 -70 l-43 -32 39 36 c59 54 134 79 236 79 136 0 238 -49 311
-152 121 -169 81 -373 -107 -552 -90 -84 -167 -132 -436 -270 -276 -142 -364
-197 -436 -273 -62 -66 -88 -115 -102 -199 -31 -173 72 -325 240 -357 97 -18
215 21 274 91 15 17 28 30 30 28 2 -2 15 -27 30 -55 35 -65 106 -135 171 -168
l50 -25 -43 -1 c-71 0 -145 51 -203 139 l-15 24 -45 -30 c-24 -16 -62 -36 -84
-43 -56 -19 -177 -15 -258 8 l-68 20 22 -25 c13 -13 53 -39 90 -57 l67 -33
-47 -6 c-63 -7 -188 -12 -291 -12 -71 0 -94 4 -142 27 l-56 26 -39 -44 -38
-45 -171 -34 c-331 -66 -595 -149 -856 -268 -43 -20 -78 -34 -78 -33 0 2 11
29 25 60 49 110 67 202 70 341 1 79 -2 137 -9 149 -8 14 -8 20 1 23 10 4 9 8
-2 20 -20 19 -19 33 3 34 13 0 12 2 -5 9 -14 6 -23 18 -23 30 0 11 -11 52 -24
90 -17 47 -21 70 -13 70 7 0 4 5 -5 11 -18 10 -24 34 -10 42 4 2 2 3 -5 1 -10
-2 -50 88 -57 127 -1 8 -8 24 -14 37 -7 12 -10 26 -7 31 3 5 1 11 -4 13 -4 1
-11 13 -15 25 -6 19 -4 22 11 16 15 -5 14 -3 -4 13 -12 10 -25 30 -28 44 -7
24 -7 24 12 8 11 -10 23 -18 26 -18 4 0 -6 12 -23 28 -27 23 -32 35 -35 87 -2
33 -7 71 -11 84 -5 18 -4 22 5 16 10 -6 11 -3 2 13 -14 27 -14 45 0 36 8 -5 8
-1 0 14 -7 14 -8 23 -1 27 6 4 8 10 5 15 -3 5 0 30 6 55 9 37 15 45 28 39 9
-4 34 -8 56 -10 l40 -3 -43 8 c-76 13 -84 51 -10 46 39 -2 40 -2 8 4 -26 4
-35 11 -35 26 0 16 6 20 35 19 27 -1 29 0 7 3 -21 3 -27 9 -23 20 3 8 6 17 6
19 0 2 12 4 28 5 25 1 26 1 4 7 l-23 7 21 23 c25 27 11 28 -38 3 -56 -29 -79
-60 -113 -152 -27 -71 -32 -102 -36 -199 -4 -110 -3 -119 30 -220 19 -58 64
-168 99 -245 110 -240 150 -361 163 -505 11 -121 -19 -285 -77 -421 -15 -36
-28 -51 -59 -64 -21 -10 -39 -21 -39 -26 0 -4 -13 -12 -30 -17 -32 -12 -119
-68 -135 -88 -5 -7 -35 -32 -66 -56 -170 -132 -231 -205 -250 -301 -17 -83 3
-128 92 -207 77 -68 123 -129 133 -176 4 -17 25 -52 47 -78 44 -54 55 -83 44
-124 -3 -15 -8 -43 -10 -62 -4 -34 -4 -34 4 -5 5 17 16 44 25 60 9 17 16 38
16 48 0 21 2 21 49 -3 53 -26 71 -47 71 -78 1 -15 12 -49 26 -77 l25 -50 -7
40 c-15 86 -13 90 31 89 23 0 59 -9 80 -20 37 -17 41 -23 49 -73 7 -38 6 -59
-2 -72 -20 -32 -13 -36 8 -4 12 18 20 47 20 73 0 39 2 42 28 42 51 0 131 -29
143 -52 19 -35 14 -93 -10 -124 -11 -14 -21 -31 -21 -37 0 -5 14 7 30 28 29
36 35 57 31 99 -2 31 17 46 51 39 23 -5 30 -3 26 8 -2 7 -33 22 -69 32 -256
72 -409 143 -512 238 -99 90 -131 180 -91 249 18 30 69 64 82 56 5 -3 5 -32 0
-64 -5 -36 -5 -67 1 -83 8 -19 10 -12 11 41 1 88 28 134 93 162 26 12 50 19
53 16 2 -3 0 -17 -6 -32 -5 -15 -10 -44 -9 -64 1 -33 2 -31 13 20 7 32 21 67
32 79 18 21 88 69 99 69 3 0 3 -15 0 -33 -5 -25 -1 -43 14 -68 21 -35 30 -24
10 13 -25 46 30 148 80 148 29 0 63 -56 56 -95 l-4 -30 11 32 c9 27 7 42 -7
80 l-18 46 36 34 c20 18 43 33 50 33 24 0 57 -46 66 -91 l9 -44 1 41 c1 23 -6
58 -15 79 -18 44 -7 84 32 110 46 30 78 16 87 -40 3 -17 3 0 1 37 -4 66 -4 67
29 86 74 46 122 31 138 -44 7 -32 8 -28 4 23 -3 47 -1 66 11 77 16 17 68 29
129 30 l40 1 -3 -48 c-2 -26 1 -53 6 -60 6 -7 13 -25 15 -42 3 -16 4 -7 2 20
-2 28 -7 60 -10 72 -5 15 0 28 15 43 20 20 28 22 99 15 42 -4 80 -11 85 -15 5
-5 1 -24 -9 -46 -16 -34 -16 -40 -2 -68 l16 -31 -6 52 c-5 50 -5 52 28 72 47
29 150 30 179 1 23 -23 34 -61 27 -96 -3 -18 -1 -22 6 -15 6 6 10 37 9 70 l-2
59 81 26 c44 14 83 26 87 26 4 0 8 -21 8 -47 1 -27 6 -66 12 -88 9 -36 10 -37
11 -11 0 16 -4 44 -11 62 -9 27 -8 37 9 70 17 33 28 41 79 57 245 75 487 84
707 26 110 -30 135 -64 102 -142 -8 -20 -15 -49 -14 -64 l1 -28 7 30 c4 17 15
42 25 57 12 19 15 36 10 62 -8 43 -1 45 64 12 65 -33 77 -50 78 -110 1 -54 21
-140 23 -99 1 12 -4 33 -10 46 -13 28 10 93 37 104 14 5 115 -7 271 -34 l32
-5 -29 -25 c-31 -26 -46 -76 -36 -118 8 -32 61 -65 101 -64 25 0 21 3 -19 14
-63 16 -79 37 -73 94 8 75 66 105 156 81 59 -16 91 -49 91 -95 0 -41 -36 -85
-70 -85 -11 0 -20 -6 -21 -12 0 -7 -26 -25 -57 -40 -31 -15 -83 -48 -114 -73
l-58 -46 22 -30 c20 -27 23 -28 39 -13 10 9 22 13 27 10 5 -3 9 2 8 11 -2 23
111 96 190 122 192 63 395 19 530 -114 67 -67 108 -140 135 -242 l22 -83 34 0
c31 0 33 2 27 28 -56 254 -214 429 -439 487 -66 17 -189 19 -250 5 -48 -11
-52 -8 -31 22 25 35 20 87 -11 120 -20 21 -23 28 -11 28 29 0 312 -50 346 -61
33 -11 35 -15 33 -59 -1 -14 5 -34 14 -45 15 -19 15 -19 5 5 -8 18 -8 34 0 54
10 26 13 28 48 21 63 -12 144 -49 164 -76 11 -14 25 -43 33 -65 l14 -39 1 42
c0 23 4 44 9 47 4 3 29 -8 55 -24 44 -28 46 -32 48 -77 2 -74 -2 -95 -23 -125
-12 -16 -18 -34 -16 -41 4 -8 6 -8 6 2 1 8 13 27 27 42 16 16 28 43 31 68 8
55 21 61 54 23 53 -59 61 -146 19 -199 -11 -14 -20 -30 -20 -35 0 -13 44 40
62 76 l15 28 23 -32 23 -32 -19 -53 c-15 -46 -16 -61 -6 -104 6 -28 9 -58 5
-67 -5 -13 -3 -15 7 -9 9 6 11 25 7 70 -7 72 6 99 42 93 30 -4 61 -60 61 -111
0 -84 -66 -148 -209 -204 -53 -21 -99 -42 -103 -48 -12 -16 -9 -25 7 -25 9 0
15 -9 15 -22 0 -27 29 -111 30 -86 0 9 -5 28 -11 42 -20 42 -4 75 47 96 62 27
72 25 91 -15 15 -30 15 -42 4 -84 -9 -37 -10 -55 -1 -70 15 -29 22 -26 8 4 -9
20 -8 32 6 63 12 26 17 57 14 93 l-3 53 73 50 c40 27 76 46 79 42 15 -14 6
-74 -15 -103 -12 -17 -22 -37 -22 -44 0 -7 14 9 32 36 26 39 32 59 33 104 1
31 5 70 10 86 14 50 72 130 138 188 74 65 94 96 78 123 -9 17 -10 17 -11 -5 0
-17 -22 -46 -73 -95 -40 -39 -83 -84 -94 -101 l-22 -30 -38 20 c-21 11 -61 43
-89 71 -102 103 -103 158 -7 240 30 26 71 72 89 101 19 29 42 57 53 62 45 25
117 -30 162 -124 16 -33 29 -54 29 -47 0 25 -43 98 -87 145 -24 26 -41 52 -38
57 4 6 3 10 -2 9 -20 -4 -32 2 -28 14 8 22 -208 175 -348 247 -69 36 -97 71
-97 125 0 35 6 52 31 80 18 20 30 37 28 38 -93 62 -129 127 -129 231 0 93 25
144 96 197 64 47 79 83 44 111 -12 10 -26 18 -31 18 -21 0 -49 -43 -65 -97
-23 -83 -57 -138 -98 -157 -42 -20 -59 -20 -96 -1 -59 31 -72 78 -46 165 23
77 28 145 16 207 -23 110 -115 166 -184 112 -20 -16 -26 -29 -26 -60 0 -49 11
-70 68 -134 64 -71 82 -104 82 -151 0 -70 -52 -94 -116 -55 -35 21 -68 85 -78
151 -12 75 -25 105 -60 139 -61 59 -152 62 -234 7 -36 -24 -55 -48 -82 -100
-33 -64 -35 -76 -38 -180 -4 -104 14 -222 44 -300 6 -16 3 -18 -36 -12 -24 3
-44 7 -45 8 -40 47 -107 190 -118 253 -2 16 -8 10 -26 -25 -60 -115 -149 -181
-245 -179 -46 0 -48 2 -26 11 95 40 133 64 179 109 48 49 93 124 105 179 4 19
2 17 -9 -7 -16 -36 -27 -40 -44 -19 -9 10 -7 24 7 57 l18 43 21 -21 c27 -27
33 -20 31 36 -1 44 -2 44 -5 9 -5 -41 -9 -44 -34 -25 -13 10 -15 24 -11 65 l5
53 23 -16 c13 -8 24 -11 24 -6 0 5 -9 13 -21 16 -24 8 -34 31 -43 105 l-7 55
30 -29 c30 -29 31 -29 31 -7 0 13 -4 20 -11 16 -15 -10 -59 34 -59 58 0 11 -2
18 -5 15 -3 -2 0 -42 5 -87 18 -143 -12 -245 -95 -323 -25 -24 -45 -49 -45
-57 0 -17 -48 -101 -58 -101 -4 0 -16 -7 -26 -15 -19 -14 -19 -15 -1 -35 10
-11 15 -23 11 -28 -4 -4 -47 -7 -94 -6 -104 1 -187 27 -187 59 0 17 7 20 57
20 51 0 61 4 88 30 40 41 48 82 20 118 -24 31 -70 37 -91 11 -10 -12 -10 -20
-1 -35 7 -10 12 -25 12 -33 0 -19 -27 -46 -46 -46 -23 0 -54 38 -54 68 0 40
22 66 104 121 106 72 126 99 126 170 0 64 -18 97 -74 133 l-31 20 56 -5 c131
-12 230 -103 262 -242 l14 -60 8 58 c15 117 -12 196 -90 265 -61 54 -130 77
-225 76 -113 -1 -208 -49 -281 -140 -15 -19 -29 -40 -32 -47 -2 -7 -17 1 -36
20 -55 55 -137 56 -191 2 -36 -36 -46 -86 -30 -144 29 -104 -35 -195 -138
-195 -52 0 -101 34 -130 90 -50 96 -8 260 91 362 67 69 152 121 417 253 370
184 489 275 569 435 101 202 45 411 -150 555 -67 49 -267 72 -364 41z m-1203
-471 c10 -4 16 -10 14 -14 -2 -3 12 -6 32 -7 23 0 75 -19 137 -49 l100 -49
-60 -7 c-106 -12 -176 -64 -263 -195 -73 -109 -135 -141 -183 -93 -16 16 -20
29 -15 55 3 19 9 50 12 69 8 47 -13 77 -70 99 -25 10 -46 22 -46 27 0 6 -4 8
-9 4 -6 -3 -15 4 -22 17 -25 46 37 112 134 144 42 14 203 13 239 -1z m2646
-921 c16 -11 21 -22 17 -37 -5 -17 -4 -19 4 -7 8 12 12 9 20 -13 14 -36 14
-187 1 -187 -5 0 -10 4 -10 9 0 5 -22 33 -48 63 -68 75 -82 98 -82 135 0 50
52 70 98 37z m-377 -93 c-26 -24 -31 -36 -31 -75 0 -27 9 -63 20 -86 26 -50
26 -50 -10 -50 -62 0 -139 -104 -140 -189 -1 -24 -2 -24 -12 -7 -21 37 -12
256 10 242 4 -2 8 9 9 25 5 61 62 130 129 154 56 20 60 18 25 -14z m113 -22
c41 -32 49 -56 57 -168 6 -84 13 -114 36 -159 35 -70 71 -92 155 -98 66 -4
110 -26 116 -58 9 -42 -56 -61 -108 -31 -31 18 -102 19 -118 3 -18 -18 -15
-45 8 -68 25 -25 85 -26 160 -4 66 20 124 13 156 -17 52 -49 11 -109 -79 -117
-57 -4 -83 1 -320 72 -178 53 -233 80 -271 134 -76 107 -19 292 89 292 52 0
75 -36 75 -119 0 -100 40 -141 90 -91 45 45 20 115 -79 224 -75 82 -99 137
-80 179 21 47 72 58 113 26z m-1025 -20 c31 -29 23 -40 -37 -55 -29 -8 -66
-21 -82 -29 -25 -13 -30 -13 -30 -1 0 26 35 55 85 71 28 8 37 13 20 11 -16 -3
-39 -8 -50 -11 -18 -6 -17 -4 4 14 30 27 61 27 90 0z m-4 -83 c-9 -13 -28 -27
-43 -31 -15 -3 -44 -17 -64 -31 -46 -30 -48 -30 -48 0 0 34 85 83 148 85 21 1
22 0 7 -23z m-39 -64 c-13 -24 -84 -82 -101 -82 -4 0 -5 12 -3 28 2 21 14 33
53 54 63 35 69 35 51 0z m-22 -69 c-4 -16 -17 -39 -29 -52 -23 -23 -23 -23
-34 -3 -9 17 -6 25 24 51 44 38 47 38 39 4z m556 -7 c9 -12 7 -22 -13 -50 -21
-31 -26 -34 -41 -23 -17 12 -16 15 4 50 24 41 32 44 50 23z m-548 -64 c3 -10
-1 -27 -9 -38 -14 -19 -15 -19 -28 0 -12 16 -12 22 2 42 17 26 28 25 35 -4z
m489 -18 c12 -14 9 -20 -16 -40 -34 -27 -53 -30 -61 -9 -4 8 6 25 23 39 33 30
37 31 54 10z m-453 -27 c7 -8 7 -17 -2 -29 -11 -15 -16 -15 -30 -5 -11 8 -15
19 -10 30 7 20 27 22 42 4z m372 -32 c15 -18 15 -17 -28 -39 -26 -14 -37 -15
-48 -5 -21 18 -17 28 19 43 42 19 42 19 57 1z m-300 -125 c308 -17 696 -66
727 -92 20 -17 16 -35 -24 -99 -35 -58 -36 -63 -34 -145 1 -79 0 -86 -25 -111
-25 -25 -29 -26 -107 -20 -106 8 -256 46 -359 93 -46 20 -89 41 -95 47 -24 18
-13 55 32 109 25 30 45 60 45 67 0 20 -51 121 -61 121 -12 0 -12 -1 11 -51 29
-65 26 -82 -28 -136 -26 -26 -54 -58 -62 -71 l-15 -24 -89 17 c-65 12 -129 16
-233 13 -135 -3 -143 -2 -143 16 0 11 -12 39 -26 64 -26 44 -29 90 -10 135 12
26 -19 22 -38 -5 -22 -31 -20 -91 4 -130 23 -38 26 -71 8 -86 -7 -5 -57 -22
-110 -36 -53 -14 -137 -42 -185 -61 -49 -18 -113 -37 -141 -41 -47 -6 -56 -4
-77 16 -22 20 -25 32 -25 90 0 36 -9 101 -20 144 -11 42 -18 81 -15 87 4 5 -3
9 -14 9 -16 0 -21 -7 -21 -27 -1 -16 -7 -39 -15 -53 -25 -45 -19 -100 20 -160
39 -62 41 -72 20 -94 -13 -13 -44 -14 -218 -9 -143 4 -205 9 -212 18 -6 7 -38
26 -72 44 -69 34 -81 55 -67 119 4 20 8 48 9 62 1 22 10 27 66 42 107 30 356
78 432 84 40 3 86 10 102 14 124 36 729 58 1065 40z m953 -136 c167 -41 408
-125 400 -138 -4 -6 -6 -41 -4 -78 3 -80 -6 -99 -59 -129 -45 -25 -60 -60 -41
-91 11 -17 10 -19 -6 -14 -73 21 -165 40 -301 61 -171 27 -200 40 -216 93 -7
26 -4 41 19 84 42 81 46 104 29 155 -14 41 -14 46 2 64 23 25 55 24 177 -7z
m-2643 -56 c0 -13 -5 -40 -11 -62 -15 -55 -5 -80 45 -110 43 -25 61 -49 50
-67 -3 -5 -34 -22 -69 -38 -87 -40 -171 -99 -273 -192 -48 -43 -90 -79 -94
-79 -4 0 0 16 8 35 17 42 18 86 2 108 -7 9 -34 25 -59 36 -26 11 -51 25 -55
33 -5 7 -12 47 -15 88 -3 41 -7 81 -10 89 -5 18 76 53 286 127 172 61 195 64
195 32z m3285 -178 c126 -62 291 -164 338 -208 49 -46 31 -85 -53 -113 -52
-18 -69 -37 -86 -98 -22 -82 -32 -101 -50 -101 -8 0 -55 40 -102 89 -77 79
-98 94 -187 135 -55 26 -111 53 -125 59 -17 9 -26 22 -28 44 -3 28 2 34 43 59
55 32 69 61 60 127 -8 58 6 81 44 72 14 -3 80 -32 146 -65z m-3827 -22 c7 -7
12 -38 12 -70 0 -78 13 -101 73 -129 54 -26 83 -71 72 -112 -24 -88 -60 -120
-222 -201 -86 -43 -111 -45 -144 -10 -21 22 -24 36 -25 104 -1 52 -6 85 -15
96 -8 9 -42 30 -76 45 -35 16 -63 34 -63 41 1 37 127 129 305 222 56 29 66 31
83 14z m-355 -297 c85 -35 96 -51 94 -146 -1 -56 4 -90 15 -112 l16 -32 -44
-26 c-56 -33 -98 -91 -115 -155 -7 -28 -15 -50 -19 -50 -3 0 -14 16 -25 36
-11 20 -48 62 -83 93 -77 68 -92 94 -92 163 1 74 26 124 111 213 63 66 74 74
80 57 4 -11 31 -29 62 -41z"/>
<path d="M4010 13702 c0 -5 14 -7 30 -4 17 2 30 6 30 8 0 2 -13 4 -30 4 -16 0
-30 -4 -30 -8z"/>
<path d="M3828 13675 c6 -31 -13 -55 -44 -55 -26 0 -55 35 -47 59 3 12 1 11
-7 -3 -28 -43 33 -92 86 -67 19 8 24 18 24 45 0 19 -4 37 -9 40 -4 3 -6 -6 -3
-19z"/>
<path d="M3980 13660 c0 -11 2 -20 4 -20 2 0 6 9 9 20 3 11 1 20 -4 20 -5 0
-9 -9 -9 -20z"/>
<path d="M6570 12790 c-9 -6 -10 -10 -3 -10 6 0 15 5 18 10 8 12 4 12 -15 0z"/>
<path d="M6623 12773 c-15 -5 -17 -49 -4 -57 5 -4 7 3 4 15 -4 12 0 25 8 30
22 13 29 11 39 -13 5 -14 9 -17 9 -7 2 29 -26 45 -56 32z"/>
<path d="M6170 12345 c0 -59 47 -133 104 -162 l30 -16 -15 24 c-8 13 -37 59
-63 102 -27 42 -50 77 -52 77 -2 0 -4 -11 -4 -25z"/>
<path d="M4240 14226 c7 -7 13 -7 20 0 6 6 3 10 -10 10 -13 0 -16 -4 -10 -10z"/>
<path d="M4998 14215 c5 -11 12 -27 15 -35 5 -13 6 -13 6 1 1 8 -6 24 -15 35
-15 19 -15 19 -6 -1z"/>
<path d="M3892 14204 c-14 -9 -22 -26 -22 -42 0 -23 -4 -28 -26 -27 -38 0 -54
-29 -29 -52 18 -17 18 -17 5 1 -13 16 -12 20 4 32 11 7 24 10 30 6 13 -8 29
-12 72 -19 57 -9 86 55 44 97 -24 24 -48 25 -78 4z m72 -10 c19 -18 21 -55 4
-72 -7 -7 -24 -12 -38 -12 -48 0 -67 45 -33 82 20 22 46 23 67 2z"/>
<path d="M4300 14176 c7 -7 13 -7 20 0 6 6 3 10 -10 10 -13 0 -16 -4 -10 -10z"/>
<path d="M4943 14140 c6 -16 13 -28 15 -26 6 6 -10 56 -18 56 -5 0 -3 -13 3
-30z"/>
<path d="M4855 14145 c-38 -11 -52 -11 -64 -2 -12 10 -13 9 -7 -1 5 -9 0 -23
-15 -38 l-23 -25 -18 23 -19 23 12 -27 c10 -24 9 -31 -14 -57 -13 -16 -27 -28
-30 -25 -2 3 -7 -8 -10 -23 -8 -39 -80 -119 -131 -145 -62 -33 -276 -39 -276
-9 0 5 35 9 78 9 116 0 183 24 242 86 18 20 26 23 33 14 6 -9 7 -7 3 6 -7 22
31 89 46 80 5 -4 8 2 6 13 -2 11 3 27 11 36 7 10 10 17 5 17 -12 0 -795 -189
-814 -197 -10 -4 -2 -9 23 -15 24 -7 37 -16 37 -26 0 -14 2 -15 9 -3 8 13 21
12 85 -9 42 -13 76 -27 76 -32 0 -5 4 -7 9 -3 5 3 27 -1 48 -9 63 -25 199 -56
276 -64 114 -11 211 3 292 44 63 31 74 40 101 92 17 31 37 80 44 107 7 28 16
55 20 60 4 6 10 26 13 45 3 19 8 43 12 53 8 20 7 20 -60 2z m-780 -263 c-3 -3
-11 0 -18 7 -9 10 -8 11 6 5 10 -3 15 -9 12 -12z m94 -18 c13 -13 -11 -12 -45
1 l-39 15 40 -6 c22 -3 42 -8 44 -10z m59 -10 c32 -9 27 -26 -5 -18 -32 8 -55
24 -32 24 7 0 24 -3 37 -6z"/>
<path d="M4911 13984 c0 -11 3 -14 6 -6 3 7 2 16 -1 19 -3 4 -6 -2 -5 -13z"/>
<path d="M5627 13890 c-15 -116 -149 -168 -243 -94 -92 73 -131 82 -183 38
-67 -56 -49 -140 40 -189 48 -26 63 -30 134 -29 93 0 142 20 193 79 48 54 65
94 70 167 5 74 -2 93 -11 28z"/>
<path d="M3836 13887 c3 -10 9 -15 12 -12 3 3 0 11 -7 18 -10 9 -11 8 -5 -6z"/>
<path d="M7705 13785 c-4 -58 -5 -109 -2 -112 13 -12 39 110 33 150 -13 83
-23 70 -31 -38z"/>
<path d="M3430 13784 c-6 -14 -10 -49 -10 -78 0 -39 -5 -58 -20 -74 -24 -26
-62 -29 -81 -6 -11 14 -9 20 19 43 29 23 44 61 24 61 -23 0 -54 -39 -90 -112
-48 -98 -65 -147 -86 -250 -17 -80 -23 -323 -8 -332 4 -2 14 21 21 52 18 79
56 166 101 235 34 50 36 57 19 57 -22 0 -59 34 -59 54 0 27 30 46 74 46 61 0
74 20 91 130 8 50 23 110 35 132 12 22 19 47 16 54 -9 23 -36 16 -46 -12z"/>
<path d="M5587 13655 c-59 -51 -122 -77 -204 -83 l-71 -5 -92 -114 c-115 -144
-118 -150 -51 -123 172 67 351 199 433 318 16 23 28 42 26 42 -2 -1 -20 -16
-41 -35z"/>
<path d="M7851 13624 c-27 -34 -27 -79 1 -140 11 -27 22 -68 22 -92 1 -38 -4
-48 -34 -74 l-34 -31 33 6 c51 10 112 57 146 111 26 43 30 59 30 119 0 65 -2
70 -33 98 -44 39 -101 41 -131 3z m101 -37 c-2 -18 4 -30 18 -39 24 -15 27
-58 5 -58 -21 0 -30 -27 -16 -44 9 -11 6 -21 -15 -45 -34 -41 -44 -39 -44 9 0
21 -5 50 -11 63 -9 21 -7 28 16 51 23 23 26 33 22 62 -5 30 -3 35 11 32 12 -3
16 -12 14 -31z m-47 3 c7 -23 -10 -60 -30 -60 -19 0 -28 35 -15 60 14 25 37
26 45 0z m71 -25 c1 -8 -2 -13 -7 -9 -5 3 -9 12 -9 21 0 19 13 9 16 -12z"/>
<path d="M7926 13523 c-12 -12 -6 -33 9 -33 8 0 15 6 15 14 0 17 -14 28 -24
19z"/>
<path d="M3128 13613 c7 -3 16 -2 19 1 4 3 -2 6 -13 5 -11 0 -14 -3 -6 -6z"/>
<path d="M2209 13547 c-85 -45 -146 -163 -133 -257 9 -63 52 -138 98 -172 21
-15 42 -28 47 -28 4 0 17 15 28 34 19 30 20 39 10 78 -16 58 7 109 65 145 23
15 46 33 53 42 37 48 18 138 -36 165 -42 22 -80 20 -132 -7z m121 -2 c66 -34
76 -121 19 -169 -70 -59 -169 -10 -169 85 0 22 10 41 34 65 38 38 70 43 116
19z"/>
<path d="M6020 13521 c0 -21 31 -24 48 -5 16 17 16 17 0 5 -15 -11 -21 -11
-33 -1 -11 9 -15 9 -15 1z"/>
<path d="M4364 13479 c46 -54 27 -132 -39 -163 -38 -18 -50 -57 -17 -55 10 0
12 3 5 6 -22 8 -14 23 21 39 38 19 66 59 67 101 l1 28 10 -31 c13 -41 -13 -99
-56 -125 -23 -14 -26 -19 -13 -19 11 0 32 14 48 31 51 55 50 136 -3 189 -39
39 -57 39 -24 -1z"/>
<path d="M5625 13470 c-16 -16 -24 -30 -19 -30 6 0 23 14 39 30 16 17 24 30
19 30 -6 0 -23 -13 -39 -30z"/>
<path d="M5863 13464 c-3 -8 -2 -19 3 -24 5 -5 9 1 9 16 0 28 -3 30 -12 8z"/>
<path d="M5905 13455 c0 -13 3 -21 8 -18 4 2 7 10 7 18 0 8 -3 16 -7 18 -5 3
-8 -5 -8 -18z"/>
<path d="M4200 13433 c0 -33 5 -46 27 -63 35 -27 77 -23 81 8 3 22 -1 26 -50
36 -16 4 -34 18 -42 34 l-15 27 -1 -42z"/>
<path d="M4604 13422 c-24 -18 -58 -61 -87 -110 -72 -122 -130 -162 -236 -162
-114 0 -176 36 -216 126 -27 61 -64 91 -93 75 -26 -14 -32 -42 -17 -78 15 -35
56 -62 138 -93 33 -13 76 -39 100 -62 l42 -40 133 43 c114 37 139 50 180 87
26 24 78 66 117 93 73 52 97 82 88 108 -17 49 -90 55 -149 13z"/>
<path d="M3023 13418 c12 -11 33 -18 56 -17 l36 2 -42 6 c-23 4 -47 11 -55 17
-8 5 -5 1 5 -8z"/>
<path d="M5515 13375 c-16 -13 -25 -24 -20 -25 6 0 24 11 40 25 17 13 26 24
20 25 -5 0 -23 -11 -40 -25z"/>
<path d="M5610 13365 c-13 -14 -52 -44 -87 -67 -35 -23 -63 -43 -63 -44 0 -2
41 11 90 28 l90 31 0 39 c0 21 -1 38 -3 38 -2 0 -14 -11 -27 -25z"/>
<path d="M3005 13330 c10 -11 20 -20 23 -20 3 0 -3 9 -13 20 -10 11 -20 20
-23 20 -3 0 3 -9 13 -20z"/>
<path d="M5392 13299 c-18 -12 -31 -24 -28 -26 6 -7 66 29 66 39 0 11 0 11
-38 -13z"/>
<path d="M7340 13291 c-14 -26 -13 -64 2 -79 7 -7 29 -12 50 -12 31 0 41 5 50
25 14 30 1 76 -22 83 -11 4 -10 0 3 -16 22 -24 15 -58 -14 -67 -49 -16 -86 30
-53 66 9 10 12 19 6 19 -6 0 -16 -9 -22 -19z"/>
<path d="M3005 13280 c10 -11 20 -20 23 -20 3 0 -3 9 -13 20 -10 11 -20 20
-23 20 -3 0 3 -9 13 -20z"/>
<path d="M7738 13293 c7 -3 16 -2 19 1 4 3 -2 6 -13 5 -11 0 -14 -3 -6 -6z"/>
<path d="M6454 13257 c-25 -50 -112 -161 -223 -287 -154 -174 -202 -255 -215
-366 l-6 -49 15 55 c33 114 115 207 208 235 60 18 70 18 120 4 81 -22 139
-100 156 -209 18 -108 64 -167 106 -136 31 22 12 76 -55 151 -32 37 -67 87
-76 112 -16 40 -16 50 -3 86 20 56 58 82 122 82 66 0 107 -27 138 -92 30 -63
37 -186 14 -263 -9 -30 -19 -70 -22 -88 -7 -45 18 -72 68 -72 44 0 73 29 90
94 25 92 31 105 57 132 20 20 22 26 8 21 -30 -12 -92 11 -125 45 -37 38 -57
98 -67 200 -11 122 -45 161 -137 161 -59 0 -131 -28 -161 -62 -25 -28 -36 -27
-36 4 0 64 55 140 132 185 l50 28 -33 7 c-19 4 -51 18 -71 31 l-38 24 -16 -33z"/>
<path d="M7467 13273 c-3 -5 5 -8 18 -8 13 0 21 3 18 8 -2 4 -10 7 -18 7 -8 0
-16 -3 -18 -7z"/>
<path d="M3643 13248 c-23 -11 -38 -41 -29 -56 3 -5 45 -12 93 -15 138 -9 219
-43 311 -131 23 -22 42 -35 42 -29 0 18 -164 165 -226 203 -62 37 -149 50
-191 28z"/>
<path d="M5802 13240 c0 -14 2 -19 5 -12 2 6 2 18 0 25 -3 6 -5 1 -5 -13z"/>
<path d="M3005 13230 c10 -11 20 -20 23 -20 3 0 -3 9 -13 20 -10 11 -20 20
-23 20 -3 0 3 -9 13 -20z"/>
<path d="M5031 13216 l-24 -31 28 27 c16 15 27 29 24 31 -2 3 -15 -10 -28 -27z"/>
<path d="M5257 13229 c-22 -11 -37 -23 -34 -25 6 -7 77 28 77 38 0 10 2 11
-43 -13z"/>
<path d="M2724 13220 c0 -13 4 -16 10 -10 7 7 7 13 0 20 -6 6 -10 3 -10 -10z"/>
<path d="M3005 13180 c10 -11 20 -20 23 -20 3 0 -3 9 -13 20 -10 11 -20 20
-23 20 -3 0 3 -9 13 -20z"/>
<path d="M5887 13193 c-14 -13 -7 -43 12 -53 15 -7 23 -6 35 6 9 8 16 21 16
27 0 7 -5 4 -11 -5 -5 -10 -17 -18 -25 -18 -20 0 -30 30 -13 41 8 5 9 9 3 9
-6 0 -14 -3 -17 -7z"/>
<path d="M5120 13160 c-19 -11 -29 -19 -22 -20 14 0 72 28 72 35 0 9 -15 4
-50 -15z"/>
<path d="M6034 13169 c-3 -6 -1 -16 5 -22 9 -9 10 -7 5 7 -6 16 -4 18 10 13
10 -4 15 -3 11 3 -8 13 -22 13 -31 -1z"/>
<path d="M5821 13144 c0 -11 3 -14 6 -6 3 7 2 16 -1 19 -3 4 -6 -2 -5 -13z"/>
<path d="M5981 13144 c0 -11 3 -14 6 -6 3 7 2 16 -1 19 -3 4 -6 -2 -5 -13z"/>
<path d="M3005 13130 c10 -11 20 -20 23 -20 3 0 -3 9 -13 20 -10 11 -20 20
-23 20 -3 0 3 -9 13 -20z"/>
<path d="M3689 13119 c-109 -16 -179 -88 -179 -184 0 -59 9 -95 22 -95 5 0 6
10 3 22 -4 11 -7 43 -7 69 0 89 55 148 159 169 41 9 62 9 80 1 33 -15 25 -31
-28 -58 -24 -13 -58 -39 -76 -59 -35 -40 -71 -126 -48 -118 7 3 15 18 19 34 7
39 72 109 121 131 48 22 123 24 170 5 46 -20 44 -8 -4 26 -69 49 -151 69 -232
57z"/>
<path d="M5831 13104 c0 -11 3 -14 6 -6 3 7 2 16 -1 19 -3 4 -6 -2 -5 -13z"/>
<path d="M2460 13090 c-19 -11 -43 -19 -52 -20 -10 0 -25 -11 -33 -24 -9 -13
-29 -26 -45 -30 -30 -5 -41 -31 -18 -38 16 -6 -20 -53 -50 -68 -16 -7 -22 -16
-18 -26 9 -23 -21 -72 -54 -89 -32 -17 -36 -25 -19 -42 16 -16 -27 -95 -63
-116 -21 -12 -28 -22 -23 -36 8 -25 -53 -78 -101 -87 -74 -14 -144 50 -144
131 0 43 27 98 63 128 20 17 20 17 2 9 -52 -26 -85 -86 -85 -154 0 -126 114
-187 222 -119 41 26 45 27 40 9 -2 -11 -18 -29 -33 -41 -33 -23 -36 -35 -14
-51 21 -16 1 -81 -38 -123 l-29 -31 22 -12 c19 -10 21 -17 15 -53 -4 -24 -18
-54 -33 -70 -27 -28 -24 -37 12 -50 5 -1 5 -26 1 -55 l-7 -52 -38 60 c-86 132
-229 180 -370 124 -36 -15 -37 -16 -27 -44 l11 -30 23 22 c31 29 108 47 165
38 90 -13 166 -88 202 -199 9 -25 22 -100 31 -166 9 -66 32 -178 51 -248 56
-202 74 -302 80 -442 6 -123 5 -132 -18 -174 -29 -54 -79 -84 -127 -77 -69 11
-109 55 -121 138 l-8 53 -1 -56 c-1 -65 22 -108 79 -147 45 -31 118 -27 155 8
23 22 25 22 25 4 0 -10 -16 -84 -36 -164 -38 -157 -53 -327 -36 -410 9 -43 10
-42 11 35 2 115 16 192 66 345 61 188 66 210 79 339 9 89 15 116 29 125 25 16
46 -1 85 -65 93 -154 121 -386 77 -640 -15 -87 -34 -129 -71 -158 -40 -31 -80
-27 -120 13 -28 28 -34 42 -35 78 l-1 43 -10 -32 c-9 -26 -7 -40 11 -76 38
-79 112 -95 175 -38 25 23 28 23 23 6 -4 -11 -18 -85 -32 -165 -36 -208 -50
-401 -38 -530 l10 -105 2 105 c2 191 30 368 110 700 48 198 62 296 62 425 0
139 3 155 30 155 32 0 57 -73 88 -262 45 -266 55 -406 55 -718 0 -394 -18
-586 -124 -1335 -69 -488 -95 -718 -111 -975 -20 -314 1 -692 52 -955 29 -154
51 -247 56 -241 2 2 -5 48 -17 103 -59 272 -85 621 -70 942 16 321 39 515 125
1057 117 731 143 957 152 1325 6 275 -4 476 -38 704 -10 72 -19 147 -19 168 0
32 3 37 23 37 29 0 46 -12 197 -143 210 -183 225 -211 242 -452 8 -126 8 -216
0 -364 -14 -235 -27 -334 -97 -771 -87 -540 -89 -557 -89 -830 -1 -251 10
-355 49 -470 8 -25 13 -34 10 -20 -31 161 -37 256 -32 470 6 256 13 306 102
815 36 204 74 440 85 526 25 198 42 500 35 604 -4 58 -2 87 8 105 30 56 93 11
188 -135 l59 -89 0 45 c0 42 -6 53 -97 165 -54 65 -239 260 -413 434 -174 173
-348 351 -386 395 -239 275 -380 525 -439 777 -17 73 -7 66 24 -17 31 -85 121
-214 195 -282 75 -69 174 -138 183 -129 4 3 8 99 11 214 l4 207 -27 -26 c-21
-21 -28 -40 -35 -93 -9 -74 -22 -96 -54 -96 -73 0 -118 107 -82 193 25 60 111
117 179 117 15 0 17 11 17 90 0 60 -5 103 -16 128 -28 67 -29 149 -3 222 20
58 23 84 24 248 1 172 -3 209 -21 181 -5 -8 -3 -9 6 -4 10 6 12 2 7 -16 -4
-13 -7 -44 -7 -69 -1 -45 -1 -45 -15 -19 -17 32 -32 114 -19 106 5 -3 9 5 9
18 0 19 -3 21 -14 12 -12 -10 -13 -6 -7 28 9 49 32 94 52 102 7 3 14 13 14 22
-1 11 -10 5 -31 -19 l-29 -35 6 35 c4 19 18 65 31 103 14 40 23 83 21 106 l-3
39 -35 -18z m-99 -207 c-101 -203 -152 -391 -176 -653 -4 -41 -12 -78 -19 -82
-8 -6 -8 -8 1 -8 9 0 13 -26 12 -92 0 -51 5 -127 10 -168 14 -105 13 -122 -4
-81 -18 39 -42 130 -52 192 -12 77 -9 310 6 374 24 109 44 170 58 181 8 7 10
13 4 15 -7 3 -6 13 2 29 7 14 21 48 31 75 30 83 147 295 162 295 2 0 -13 -35
-35 -77z m-27 -265 c-16 -88 -17 -276 -4 -373 14 -97 46 -218 77 -293 14 -34
24 -65 20 -68 -8 -8 -81 121 -105 186 -32 88 -46 199 -39 318 5 88 31 231 52
290 11 30 10 7 -1 -60z"/>
<path d="M4987 13094 c-16 -9 -27 -18 -24 -21 6 -5 67 24 67 32 0 8 -14 5 -43
-11z"/>
<path d="M2565 13089 c-4 -6 -5 -12 -2 -15 2 -3 7 2 10 11 7 17 1 20 -8 4z"/>
<path d="M7547 13079 c7 -7 15 -10 18 -7 3 3 -2 9 -12 12 -14 6 -15 5 -6 -5z"/>
<path d="M5841 13064 c0 -11 3 -14 6 -6 3 7 2 16 -1 19 -3 4 -6 -2 -5 -13z"/>
<path d="M7184 13059 c0 -10 4 -19 8 -19 4 0 8 6 8 14 0 8 -4 17 -8 20 -4 2
-8 -4 -8 -15z"/>
<path d="M2585 13049 c11 -4 14 -8 8 -8 -7 -1 -15 -12 -19 -26 -3 -14 -10 -22
-15 -19 -5 3 -8 0 -7 -8 2 -7 -5 -12 -14 -12 -10 1 -15 -2 -12 -7 8 -13 34
-11 34 3 0 6 10 2 23 -10 25 -24 76 -29 95 -10 18 18 15 73 -5 89 -16 13 -17
12 -5 -3 21 -26 11 -61 -20 -72 -33 -11 -58 6 -58 39 0 25 15 40 45 47 11 3 0
5 -25 5 -32 0 -39 -2 -25 -8z"/>
<path d="M7722 13050 c3 -8 62 -189 132 -401 69 -213 133 -392 142 -399 28
-24 44 -68 44 -123 0 -52 50 -224 68 -236 14 -9 -16 -156 -54 -270 -90 -270
-242 -483 -638 -891 -167 -173 -145 -140 43 61 263 282 389 450 486 644 58
116 100 234 119 334 12 64 -5 24 -24 -57 -40 -169 -139 -367 -272 -542 -81
-108 -220 -268 -413 -475 -92 -99 -203 -222 -247 -274 -217 -261 -330 -495
-345 -714 -6 -86 -5 -88 31 -160 52 -103 77 -131 119 -131 71 0 125 69 113
146 -3 20 -29 81 -57 135 -52 102 -75 195 -60 250 l7 27 14 -33 c19 -47 72
-83 130 -89 42 -4 52 -1 74 21 51 51 47 106 -14 163 -69 65 -85 128 -56 212 8
23 27 58 42 79 14 21 23 29 19 18 -4 -11 -14 -36 -21 -55 -26 -69 -10 -158 31
-174 34 -13 75 -6 96 17 19 20 20 28 13 97 -13 129 -10 191 15 246 23 52 94
133 104 117 9 -15 57 -240 72 -337 56 -378 43 -831 -39 -1354 -14 -86 -41
-256 -60 -377 -100 -623 -99 -949 3 -1293 28 -93 36 -91 10 2 -48 176 -68 453
-50 696 14 191 44 400 116 815 66 383 100 626 116 835 15 194 7 546 -16 700
-23 157 -17 352 13 430 26 65 76 130 102 130 40 0 44 -23 27 -153 -47 -356
-29 -653 98 -1602 132 -990 164 -1355 166 -1919 2 -320 12 -299 24 49 12 336
-16 750 -101 1465 -25 212 -53 453 -63 537 l-17 151 29 -24 c53 -45 140 -26
173 37 16 31 18 96 5 118 -6 10 -8 1 -4 -25 10 -76 -55 -145 -121 -128 -32 8
-71 51 -84 94 -13 41 -38 328 -48 545 l-7 150 27 -32 c67 -79 191 -60 241 38
16 30 20 126 6 147 -5 8 -6 -7 -3 -36 8 -92 -50 -162 -135 -162 -86 0 -132 74
-133 210 0 178 31 418 76 575 50 175 137 325 190 325 28 0 61 -50 87 -132 65
-202 70 -234 71 -405 1 -173 9 -175 25 -6 12 130 0 262 -40 442 -43 193 -47
270 -20 360 42 140 38 137 76 46 35 -83 57 -161 73 -255 l9 -55 2 66 c1 81
-11 152 -54 299 l-33 115 8 265 c6 202 12 278 25 320 52 169 186 272 333 257
74 -8 156 -50 187 -95 14 -20 25 -39 25 -43 0 -3 -21 5 -47 18 -106 54 -213
-13 -213 -132 0 -35 6 -52 25 -70 69 -70 174 36 107 108 -28 30 -28 45 3 59
51 23 112 -51 102 -125 -10 -72 -75 -117 -169 -117 -138 0 -219 -68 -222 -184
-3 -135 117 -214 282 -187 140 24 262 115 320 238 24 52 27 69 27 168 0 103
-2 114 -32 178 -100 211 -358 296 -565 185 -105 -56 -173 -140 -210 -263 l-22
-70 -9 40 c-7 28 -7 40 2 43 19 6 12 31 -12 47 -15 9 -28 33 -36 66 -12 45
-11 51 5 63 16 12 15 15 -14 36 -66 49 -74 159 -11 145 32 -7 87 14 113 44 26
29 13 38 -19 13 -35 -28 -78 -36 -119 -22 -38 12 -117 91 -98 98 21 7 13 32
-13 44 -32 14 -67 70 -59 92 4 10 -1 18 -12 22 -11 4 -29 19 -41 33 -19 23
-20 28 -7 42 13 15 11 18 -18 29 -18 7 -42 20 -52 29 -17 14 -19 14 -14 1z
m-462 -2484 c0 -2 -8 -10 -17 -17 -16 -13 -17 -12 -4 4 13 16 21 21 21 13z"/>
<path d="M3461 13017 c-34 -56 -47 -119 -32 -166 12 -43 17 -46 39 -32 11 6
11 16 3 47 -14 51 -13 100 3 147 17 46 14 47 -13 4z"/>
<path d="M4853 13014 c-18 -16 -21 -22 -8 -15 32 15 61 40 48 41 -7 0 -25 -12
-40 -26z"/>
<path d="M5894 13029 c-3 -6 -2 -15 3 -20 5 -5 9 -1 9 11 0 23 -2 24 -12 9z"/>
<path d="M7640 13030 c-9 -6 -10 -10 -3 -10 6 0 15 5 18 10 8 12 4 12 -15 0z"/>
<path d="M5801 13004 c0 -11 3 -14 6 -6 3 7 2 16 -1 19 -3 4 -6 -2 -5 -13z"/>
<path d="M7510 13016 c0 -2 9 -6 20 -9 11 -3 18 -1 14 4 -5 9 -34 13 -34 5z"/>
<path d="M7284 12989 c0 -10 4 -19 8 -19 4 0 8 6 8 14 0 8 -4 17 -8 20 -4 2
-8 -4 -8 -15z"/>
<path d="M5811 12964 c0 -11 3 -14 6 -6 3 7 2 16 -1 19 -3 4 -6 -2 -5 -13z"/>
<path d="M5934 12968 c-5 -7 -3 -8 5 -4 7 5 21 0 32 -10 23 -20 26 -12 3 10
-18 19 -30 20 -40 4z"/>
<path d="M7490 12971 c0 -10 19 -25 25 -20 1 2 -3 10 -11 17 -8 7 -14 8 -14 3z"/>
<path d="M7687 12949 c4 -13 8 -18 11 -10 2 7 -1 18 -6 23 -8 8 -9 4 -5 -13z"/>
<path d="M4745 12930 c-16 -16 -26 -32 -24 -35 3 -3 18 9 34 25 16 16 26 32
24 35 -3 3 -18 -9 -34 -25z"/>
<path d="M5871 12944 c0 -11 3 -14 6 -6 3 7 2 16 -1 19 -3 4 -6 -2 -5 -13z"/>
<path d="M5922 12941 c7 -25 36 -37 50 -23 11 11 9 12 -6 6 -13 -5 -24 -1 -34
12 -8 10 -12 13 -10 5z"/>
<path d="M5881 12904 c0 -11 3 -14 6 -6 3 7 2 16 -1 19 -3 4 -6 -2 -5 -13z"/>
<path d="M7227 12913 c-3 -5 5 -8 18 -8 13 0 21 3 18 8 -2 4 -10 7 -18 7 -8 0
-16 -3 -18 -7z"/>
<path d="M7428 12913 c7 -3 16 -2 19 1 4 3 -2 6 -13 5 -11 0 -14 -3 -6 -6z"/>
<path d="M7690 12903 c51 -19 66 -71 28 -97 -12 -9 -17 -16 -11 -16 20 0 43
30 43 56 0 28 -33 64 -57 63 -14 0 -15 -2 -3 -6z"/>
<path d="M7415 12889 c5 -13 -1 -18 -24 -21 -17 -2 -33 0 -35 6 -3 7 -5 6 -5
-1 -1 -7 -7 -13 -15 -13 -8 0 -17 6 -19 13 -4 9 -6 9 -6 -1 -1 -7 6 -15 15
-19 8 -3 20 -16 25 -29 7 -20 16 -24 52 -24 58 0 87 -22 87 -66 0 -41 -19 -52
-60 -37 l-28 10 24 -51 c13 -28 33 -59 45 -68 46 -38 129 -11 157 50 l17 37 3
-58 c4 -71 -23 -134 -74 -175 -35 -27 -43 -55 -22 -68 8 -5 9 -2 5 9 -4 12 -1
17 10 17 9 0 36 11 59 25 32 19 49 39 66 75 17 37 27 48 40 45 9 -3 19 -2 22
3 3 6 -2 9 -11 8 -13 -1 -18 9 -20 44 -2 25 -8 57 -13 72 -5 15 -7 37 -5 48 2
11 0 18 -4 16 -4 -3 -25 15 -46 41 -42 51 -121 93 -174 93 -27 0 -32 3 -27 16
5 13 4 14 -7 6 -10 -9 -17 -8 -26 1 -10 9 -11 9 -6 -4z"/>
<path d="M7640 12879 c-16 -30 -8 -31 13 -3 10 13 13 24 8 24 -6 0 -15 -9 -21
-21z"/>
<path d="M5552 12873 c29 -32 48 -89 41 -123 -3 -17 -27 -55 -53 -83 -58 -64
-76 -95 -62 -109 19 -19 42 1 68 60 28 65 57 88 99 78 54 -14 45 -70 -19 -108
-55 -33 -80 -69 -72 -103 9 -36 47 -33 92 7 48 43 74 100 74 167 0 94 -47 164
-144 213 -38 19 -40 19 -24 1z"/>
<path d="M7220 12868 c0 -5 9 -8 19 -8 11 0 22 3 24 8 3 4 -6 7 -19 7 -13 0
-24 -3 -24 -7z"/>
<path d="M2524 12830 c0 -13 4 -16 10 -10 7 7 7 13 0 20 -6 6 -10 3 -10 -10z"/>
<path d="M4670 12805 c-7 -20 -10 -39 -7 -41 3 -3 10 11 17 31 7 20 10 39 7
41 -3 3 -10 -11 -17 -31z"/>
<path d="M7630 12825 c0 -8 9 -19 21 -25 29 -16 29 -9 2 17 -16 16 -23 18 -23
8z"/>
<path d="M5900 12777 c0 -20 4 -38 9 -42 6 -3 7 10 4 32 -8 50 -13 55 -13 10z"/>
<path d="M2483 12781 l-22 -19 29 2 c16 1 32 5 37 9 4 5 0 5 -10 1 -9 -3 -17
-2 -17 4 0 6 6 13 13 15 6 3 8 6 2 6 -5 0 -20 -8 -32 -18z"/>
<path d="M3201 12725 c0 -11 4 -27 9 -35 9 -13 10 -13 9 0 0 8 -4 24 -9 35
l-9 20 0 -20z"/>
<path d="M2755 12702 c94 -28 165 -64 230 -117 l60 -49 -35 43 c-59 75 -149
120 -270 135 -43 6 -42 5 15 -12z"/>
<path d="M3017 12663 c-5 -31 -2 -42 18 -63 61 -64 101 -225 75 -306 -27 -85
-76 -132 -169 -164 l-45 -15 -17 -80 c-10 -44 -18 -83 -18 -86 -1 -4 32 -9 73
-11 57 -2 82 -9 104 -25 l30 -22 30 92 c56 168 64 306 27 465 -17 71 -85 252
-96 252 -3 0 -9 -17 -12 -37z"/>
<path d="M4851 12655 c1 -43 2 -46 10 -24 6 16 6 35 0 50 -8 20 -10 16 -10
-26z"/>
<path d="M4655 12660 c4 -19 11 -39 16 -45 6 -6 7 4 3 25 -4 19 -11 40 -16 45
-7 7 -8 -2 -3 -25z"/>
<path d="M3215 12661 c-3 -5 -1 -12 5 -16 5 -3 10 1 10 9 0 18 -6 21 -15 7z"/>
<path d="M2717 12630 c47 -28 67 -73 60 -135 l-5 -51 42 -17 c24 -10 58 -33
77 -53 29 -30 34 -42 34 -82 0 -29 -8 -63 -22 -90 l-23 -42 28 6 c63 15 121
63 141 117 19 48 13 128 -13 182 -41 88 -121 142 -254 170 -90 20 -103 19 -65
-5z m168 -50 c33 -16 72 -42 87 -57 88 -94 92 -226 9 -296 -37 -31 -56 -35
-46 -9 35 84 2 169 -84 216 -51 27 -51 27 -51 77 0 28 -7 63 -15 80 l-16 30
28 -7 c15 -3 55 -19 88 -34z"/>
<path d="M3232 12610 c0 -14 2 -19 5 -12 2 6 2 18 0 25 -3 6 -5 1 -5 -13z"/>
<path d="M7400 12589 c0 -23 -47 -67 -81 -74 l-31 -7 48 -50 c48 -49 50 -50
98 -44 88 10 165 69 182 141 7 29 6 29 -12 13 -52 -46 -122 -43 -176 8 -18 19
-28 23 -28 13z"/>
<path d="M4487 12534 c-28 -34 -28 -36 -10 -50 34 -28 94 -65 119 -74 25 -10
25 -10 -5 28 -17 20 -40 58 -51 85 -12 26 -22 47 -23 47 -1 0 -15 -16 -30 -36z"/>
<path d="M4731 12559 c8 -5 23 -9 34 -9 11 0 26 4 34 9 10 6 -1 9 -34 9 -33 0
-44 -3 -34 -9z"/>
<path d="M3235 12540 c3 -5 8 -10 11 -10 2 0 4 5 4 10 0 6 -5 10 -11 10 -5 0
-7 -4 -4 -10z"/>
<path d="M7273 12415 c-3 -9 -3 -19 1 -22 3 -4 6 2 6 11 0 12 5 16 16 12 8 -3
12 -2 9 4 -9 15 -25 12 -32 -5z"/>
<path d="M7493 12374 c-3 -9 2 -23 13 -32 17 -16 17 -16 5 1 -11 14 -11 20 -1
32 9 11 9 15 1 15 -6 0 -14 -7 -18 -16z"/>
<path d="M7156 12363 c-6 -14 -5 -15 5 -6 7 7 10 15 7 18 -3 3 -9 -2 -12 -12z"/>
<path d="M7090 12362 c0 -6 -8 -13 -17 -15 -16 -4 -16 -5 -1 -6 18 -1 34 16
24 26 -3 4 -6 1 -6 -5z"/>
<path d="M3241 12334 c0 -11 3 -14 6 -6 3 7 2 16 -1 19 -3 4 -6 -2 -5 -13z"/>
<path d="M7133 12333 c-15 -5 -18 -49 -4 -57 4 -3 6 6 3 19 -4 25 4 30 37 26
7 -2 10 2 6 8 -6 11 -21 13 -42 4z"/>
<path d="M3251 12294 c0 -11 3 -14 6 -6 3 7 2 16 -1 19 -3 4 -6 -2 -5 -13z"/>
<path d="M3310 12303 c0 -4 5 -15 10 -23 8 -13 10 -13 10 2 0 9 -4 20 -10 23
-5 3 -10 3 -10 -2z"/>
<path d="M7276 12273 c-6 -14 -5 -15 5 -6 7 7 10 15 7 18 -3 3 -9 -2 -12 -12z"/>
<path d="M7868 12243 c6 -2 18 -2 25 0 6 3 1 5 -13 5 -14 0 -19 -2 -12 -5z"/>
<path d="M7269 12224 c-25 -30 27 -72 55 -44 8 8 7 10 -7 4 -21 -8 -48 12 -41
31 3 8 13 16 22 18 15 4 15 5 1 6 -9 0 -22 -6 -30 -15z"/>
<path d="M3322 12200 c0 -14 2 -19 5 -12 2 6 2 18 0 25 -3 6 -5 1 -5 -13z"/>
<path d="M6045 12210 c-3 -5 -1 -10 4 -10 6 0 11 5 11 10 0 6 -2 10 -4 10 -3
0 -8 -4 -11 -10z"/>
<path d="M7740 12210 c-8 -5 -10 -10 -5 -10 6 0 17 5 25 10 8 5 11 10 5 10 -5
0 -17 -5 -25 -10z"/>
<path d="M7450 12200 c-9 -6 -10 -10 -3 -10 6 0 15 5 18 10 8 12 4 12 -15 0z"/>
<path d="M3251 12187 c0 -10 -5 -16 -10 -13 -5 4 -7 -2 -5 -11 3 -10 -6 -47
-20 -83 -20 -55 -47 -188 -31 -154 3 7 16 10 28 7 21 -5 21 -5 3 9 -12 9 -17
21 -13 32 9 24 38 20 45 -6 5 -20 7 -19 14 12 5 19 9 40 10 47 1 6 8 9 17 6
13 -4 13 -3 2 5 -11 8 -11 16 -3 38 5 16 13 38 17 49 6 20 6 20 -6 0 -7 -11
-20 -45 -30 -75 -15 -48 -20 -55 -40 -52 -13 2 -25 5 -27 7 -1 1 11 40 28 85
17 46 29 91 27 99 -4 13 -5 12 -6 -2z"/>
<path d="M7983 12160 c6 -22 13 -37 15 -35 7 7 -8 75 -17 75 -5 0 -3 -18 2
-40z"/>
<path d="M3447 12183 c-4 -3 -7 -11 -7 -17 0 -6 5 -5 12 2 6 6 9 14 7 17 -3 3
-9 2 -12 -2z"/>
<path d="M7810 12181 c-14 -5 -49 -20 -79 -35 l-54 -28 89 -89 89 -90 27 33
c40 46 62 110 54 152 -11 57 -57 78 -126 57z"/>
<path d="M3360 12145 c-7 -9 -10 -18 -7 -21 3 -3 -1 -21 -9 -39 -8 -19 -14
-40 -14 -47 1 -7 12 16 26 51 25 66 26 83 4 56z"/>
<path d="M3484 12125 c-7 -19 -14 -37 -14 -40 0 -9 -23 -31 -40 -38 -13 -5
-13 -5 0 -6 26 -1 38 12 58 67 22 58 19 72 -4 17z"/>
<path d="M3411 12095 c-24 -65 -27 -93 -6 -51 8 15 15 36 15 45 0 9 7 27 16
39 8 12 11 22 5 22 -5 0 -19 -25 -30 -55z"/>
<path d="M3541 12109 c-6 -18 -9 -34 -7 -36 2 -2 9 10 15 28 6 18 9 34 7 36
-2 2 -9 -10 -15 -28z"/>
<path d="M3580 12116 c0 -9 30 -14 35 -6 4 6 -3 10 -14 10 -12 0 -21 -2 -21
-4z"/>
<path d="M7965 12019 c-9 -17 -15 -33 -13 -35 3 -2 12 12 21 31 21 43 13 47
-8 4z"/>
<path d="M3320 12001 c0 -25 6 -27 13 -6 4 8 2 17 -3 20 -6 4 -10 -3 -10 -14z"/>
<path d="M7194 11929 c-3 -6 -2 -15 3 -20 5 -5 9 -1 9 11 0 23 -2 24 -12 9z"/>
<path d="M7224 11920 c0 -13 4 -16 10 -10 7 7 7 13 0 20 -6 6 -10 3 -10 -10z"/>
<path d="M7261 11866 c-6 -7 -9 -21 -5 -30 10 -26 22 -18 16 10 -4 24 -2 26
21 22 15 -3 24 -1 21 3 -8 14 -40 11 -53 -5z"/>
<path d="M7392 11853 c3 -19 38 -31 38 -14 0 6 -8 7 -17 4 -12 -5 -15 -2 -10
10 3 9 2 17 -4 17 -6 0 -9 -8 -7 -17z"/>
<path d="M1678 11853 c-21 -5 -21 -8 -8 -33 8 -14 18 -18 43 -13 27 4 39 -1
65 -25 18 -17 32 -38 32 -48 0 -16 -2 -15 -20 4 -12 12 -31 21 -43 21 l-22 -2
22 -4 c30 -6 45 -27 41 -60 -2 -20 -9 -29 -25 -31 -19 -3 -20 -6 -11 -33 5
-16 14 -29 19 -29 5 0 26 15 45 33 31 28 37 41 41 83 8 98 -77 164 -179 137z"/>
<path d="M4992 11834 c-108 -29 -153 -62 -262 -194 -79 -96 -159 -168 -210
-189 -22 -10 -21 -10 10 -5 59 10 76 7 116 -20 35 -24 47 -26 141 -26 59 0
103 4 103 10 0 15 123 17 136 1 5 -7 31 -15 56 -18 43 -5 47 -4 50 18 3 22 8
24 77 27 l74 3 -5 -26 -5 -25 80 0 c74 0 83 2 109 27 l28 27 47 -45 c41 -39
44 -40 23 -11 -12 18 -31 39 -41 45 -26 16 -24 23 11 37 25 11 34 10 57 -5 16
-10 38 -30 50 -45 17 -21 29 -26 48 -23 35 7 31 17 -11 32 -48 18 -100 71
-173 180 -79 117 -114 156 -167 187 -90 53 -231 68 -342 38z m353 -74 l30 -20
-62 0 c-63 0 -78 10 -45 29 25 15 44 13 77 -9z m-410 -63 c31 -66 31 -75 3
-80 -16 -3 -15 -4 4 -2 24 1 29 -4 42 -42 14 -39 13 -43 -2 -44 -16 -1 -16 -2
0 -6 18 -4 42 -69 32 -85 -3 -4 -33 -8 -68 -8 -62 0 -63 0 -79 35 -9 20 -17
38 -17 40 0 2 21 6 48 8 l47 3 -50 2 c-51 2 -51 2 -83 58 -42 74 -41 93 10
137 60 53 82 49 113 -16z m453 21 c13 -13 16 -47 6 -72 -5 -12 -17 -14 -52
-11 -44 4 -39 1 16 -11 l22 -4 -26 -40 c-19 -29 -34 -40 -53 -41 -23 -2 -24
-2 -3 -6 26 -5 26 -3 7 -50 l-15 -38 -76 3 -75 4 7 31 c3 18 9 36 12 42 3 5 7
18 8 30 5 44 24 75 46 76 17 1 19 2 6 6 -22 6 -22 13 -1 58 l17 35 71 0 c42 0
76 -5 83 -12z"/>
<path d="M4853 11703 c9 -2 25 -2 35 0 9 3 1 5 -18 5 -19 0 -27 -2 -17 -5z"/>
<path d="M7300 11820 c-9 -6 -10 -10 -3 -10 6 0 15 5 18 10 8 12 4 12 -15 0z"/>
<path d="M4471 11721 c-20 -36 -13 -79 15 -97 54 -36 111 22 82 83 -17 37 -80
46 -97 14z m77 -3 c20 -20 15 -76 -9 -88 -28 -15 -69 11 -69 45 0 44 50 71 78
43z"/>
<path d="M5812 11638 c-30 -30 11 -80 52 -65 33 13 13 77 -24 77 -9 0 -21 -5
-28 -12z m56 -30 c3 -22 -1 -28 -16 -28 -25 0 -44 23 -36 44 11 28 48 16 52
-16z"/>
<path d="M7606 11618 c-3 -13 -5 -39 -5 -58 1 -27 3 -22 9 20 9 58 7 77 -4 38z"/>
<path d="M7736 11618 c-3 -13 -5 -32 -5 -43 1 -11 5 -2 10 19 10 42 6 62 -5
24z"/>
<path d="M7542 11600 c0 -14 2 -19 5 -12 2 6 2 18 0 25 -3 6 -5 1 -5 -13z"/>
<path d="M7672 11600 c0 -14 2 -19 5 -12 2 6 2 18 0 25 -3 6 -5 1 -5 -13z"/>
<path d="M4402 11590 c0 -14 2 -19 5 -12 2 6 2 18 0 25 -3 6 -5 1 -5 -13z"/>
<path d="M7472 11585 c0 -16 2 -22 5 -12 2 9 2 23 0 30 -3 6 -5 -1 -5 -18z"/>
<path d="M3911 11554 c-183 -49 -334 -200 -396 -397 -34 -105 -33 -127 3 -127
27 0 29 3 42 67 43 217 212 383 422 415 65 10 88 9 155 -6 42 -9 102 -28 133
-41 30 -13 82 -26 115 -29 l60 -7 -38 26 c-60 41 -168 93 -217 104 -64 15
-216 12 -279 -5z"/>
<path d="M7541 11544 c0 -11 3 -14 6 -6 3 7 2 16 -1 19 -3 4 -6 -2 -5 -13z"/>
<path d="M4002 11474 c-64 -32 -115 -89 -144 -163 -19 -47 -23 -74 -22 -171 1
-99 5 -128 32 -211 72 -226 104 -448 79 -541 -14 -54 -104 -42 -144 19 -18 27
-8 45 38 69 39 20 59 18 87 -8 16 -15 23 -18 20 -8 -3 8 -16 21 -30 29 -34 20
-101 1 -124 -34 -15 -23 -15 -27 0 -50 22 -33 74 -65 105 -65 14 0 35 10 48
22 l23 21 0 -37 c0 -71 -21 -232 -41 -311 -25 -98 -66 -196 -113 -269 -48 -75
-38 -71 17 7 108 151 164 318 188 557 12 120 8 230 -16 435 -17 151 -8 244 35
331 16 34 30 77 30 97 0 29 -4 36 -25 41 -24 6 -65 58 -65 83 0 6 20 32 45 56
39 39 45 51 45 86 0 23 -4 41 -8 41 -4 0 -31 -12 -60 -26z m24 -245 c28 -14
30 -17 18 -34 -7 -10 -15 -22 -17 -28 -2 -6 -16 -6 -40 2 -31 11 -37 17 -37
41 0 16 5 41 11 56 l10 28 12 -24 c7 -14 26 -32 43 -41z m-18 -84 c2 -2 -2
-25 -10 -52 -24 -83 -58 -60 -58 39 0 28 2 29 33 23 17 -4 33 -9 35 -10z m-27
-167 c-4 -47 -5 -49 -12 -23 -11 48 -10 75 4 75 8 0 11 -15 8 -52z"/>
<path d="M4604 11404 c-19 -15 -19 -15 1 -6 11 5 27 12 35 15 13 5 13 6 -1 6
-8 1 -24 -6 -35 -15z"/>
<path d="M6231 11407 c-6 -8 -14 -27 -17 -44 -10 -53 44 -84 79 -45 20 22 22
73 5 90 -16 16 -53 15 -67 -1z m57 -9 c31 -31 -10 -104 -46 -82 -24 15 -26 41
-8 69 18 27 36 31 54 13z"/>
<path d="M6407 11382 c-27 -30 -22 -87 9 -111 15 -12 34 -21 44 -21 30 0 70
39 70 69 0 63 -85 106 -123 63z m88 -18 c14 -15 25 -34 25 -42 0 -25 -31 -52
-58 -52 -54 0 -81 62 -45 102 23 25 50 22 78 -8z"/>
<path d="M5460 11344 c22 -20 43 -34 46 -32 6 6 -66 68 -78 68 -5 0 10 -16 32
-36z"/>
<path d="M3502 11345 c0 -16 2 -22 5 -12 2 9 2 23 0 30 -3 6 -5 -1 -5 -18z"/>
<path d="M4708 11336 c-21 -5 -38 -13 -38 -17 0 -4 12 -4 28 1 15 5 36 10 47
12 11 2 16 6 10 9 -5 3 -27 1 -47 -5z"/>
<path d="M5138 11343 c6 -2 18 -2 25 0 6 3 1 5 -13 5 -14 0 -19 -2 -12 -5z"/>
<path d="M5213 11343 c9 -2 25 -2 35 0 9 3 1 5 -18 5 -19 0 -27 -2 -17 -5z"/>
<path d="M4937 11333 c18 -2 50 -2 70 0 21 2 7 4 -32 4 -38 0 -55 -2 -38 -4z"/>
<path d="M7560 11325 c0 -8 5 -15 10 -15 6 0 10 7 10 15 0 8 -4 15 -10 15 -5
0 -10 -7 -10 -15z"/>
<path d="M5361 11297 c2 -2 21 -15 42 -30 20 -16 37 -24 37 -20 0 9 -62 53
-75 53 -4 0 -6 -1 -4 -3z"/>
<path d="M6273 11263 c-7 -2 -13 -16 -13 -30 0 -20 4 -24 23 -21 16 2 22 10
22 27 0 25 -11 33 -32 24z m27 -29 c0 -8 -7 -14 -15 -14 -15 0 -21 21 -9 33
10 9 24 -2 24 -19z"/>
<path d="M5155 11250 c17 -4 44 -8 60 -8 29 0 29 0 5 8 -14 4 -41 8 -60 8
l-35 0 30 -8z"/>
<path d="M4745 11240 c-13 -6 -5 -7 25 -3 25 3 47 7 49 9 9 8 -55 2 -74 -6z"/>
<path d="M4958 11243 c18 -2 45 -2 60 0 15 2 0 4 -33 4 -33 0 -45 -2 -27 -4z"/>
<path d="M3330 11191 c-23 -45 -7 -101 31 -101 26 0 69 39 69 64 0 49 -78 77
-100 37z m71 -12 c18 -18 19 -23 6 -42 -17 -26 -56 -35 -68 -15 -14 21 10 78
32 78 5 0 18 -9 30 -21z"/>
<path d="M5321 11207 c2 -2 20 -14 39 -26 l35 -23 -28 26 c-15 14 -33 26 -39
26 -6 0 -9 -1 -7 -3z"/>
<path d="M6439 11194 c-18 -22 1 -49 36 -49 35 0 54 27 36 49 -8 9 -24 16 -36
16 -12 0 -28 -7 -36 -16z m59 -6 c13 -13 -2 -38 -23 -38 -21 0 -36 25 -23 38
7 7 17 12 23 12 6 0 16 -5 23 -12z"/>
<path d="M5880 11185 c-6 -8 -27 -20 -45 -27 -39 -14 -37 -31 3 -22 28 7 72
41 72 56 0 13 -16 9 -30 -7z"/>
<path d="M6631 11161 c-25 -46 1 -82 45 -62 21 9 25 17 22 44 -2 26 -8 33 -30
35 -18 2 -30 -3 -37 -17z m54 -1 c11 -18 -6 -50 -26 -50 -13 0 -19 7 -19 23 0
13 3 27 7 30 10 10 31 8 38 -3z"/>
<path d="M4750 11135 c0 -17 17 -62 37 -100 33 -60 38 -79 38 -135 0 -51 -6
-77 -29 -120 -36 -70 -88 -135 -136 -166 l-38 -25 28 -77 c15 -42 40 -102 54
-132 l27 -55 -6 50 c-3 28 -15 83 -25 122 l-20 72 43 40 c23 22 45 37 49 33 4
-4 15 -50 24 -102 12 -72 15 -129 11 -239 -3 -79 -4 -141 -1 -138 3 3 10 49
15 103 11 107 0 255 -26 354 -12 46 -12 56 0 70 7 8 27 44 44 79 l30 64 11
-29 c65 -169 65 -377 1 -631 -24 -93 -26 -115 -16 -139 11 -27 12 -28 22 -9 6
11 13 37 17 58 5 29 12 37 29 38 18 1 19 2 4 6 -15 4 -17 11 -11 36 3 18 9 36
12 42 6 10 7 15 10 66 2 21 7 25 30 24 18 -2 20 -1 5 2 -17 3 -23 11 -23 31 0
34 10 48 35 55 18 4 18 5 -2 6 -20 1 -23 7 -23 41 0 34 3 40 23 41 16 1 18 2
5 6 -13 3 -18 15 -18 43 0 28 5 40 18 43 13 4 11 5 -5 6 -20 1 -23 7 -23 40 0
36 3 40 28 44 26 4 26 4 -4 6 -29 1 -32 5 -38 41 -3 22 -11 40 -16 40 -6 0
-10 12 -10 28 0 15 -14 60 -30 101 -17 41 -29 75 -28 76 2 1 12 7 23 14 18 11
17 12 -8 6 -25 -5 -29 -2 -42 29 -20 48 -19 56 8 56 12 0 29 5 37 10 10 7 1 8
-30 4 -45 -6 -45 -6 -59 31 -7 20 -11 38 -9 41 2 2 22 8 44 14 l39 10 -44 -4
c-24 -3 -47 -10 -51 -16 -6 -9 -11 -7 -19 6 -9 17 -10 15 -11 -11z"/>
<path d="M4963 11153 c15 -2 39 -2 55 0 15 2 2 4 -28 4 -30 0 -43 -2 -27 -4z"/>
<path d="M5145 11152 c30 -13 100 -23 89 -12 -5 4 -31 11 -59 14 -32 4 -43 3
-30 -2z"/>
<path d="M5670 11140 c6 -11 13 -20 16 -20 2 0 0 9 -6 20 -6 11 -13 20 -16 20
-2 0 0 -9 6 -20z"/>
<path d="M5941 11122 c-7 -13 -31 -32 -53 -42 -47 -21 -34 -37 14 -17 41 17
61 40 56 64 -3 16 -5 15 -17 -5z"/>
<path d="M6040 11063 c0 -45 5 -85 10 -88 30 -19 -18 -85 -62 -85 -11 0 -16
-4 -13 -10 11 -18 43 -11 74 16 l31 26 21 -47 c19 -44 20 -48 4 -65 -9 -10
-30 -22 -46 -25 -16 -4 -26 -11 -23 -17 8 -12 54 -1 77 19 20 19 20 19 41 -31
16 -37 16 -41 -1 -57 -10 -10 -29 -21 -43 -24 -22 -5 -28 -1 -46 35 l-20 42 2
-108 c1 -105 3 -115 57 -269 110 -314 141 -510 141 -890 0 -240 -3 -302 -22
-433 -38 -253 -76 -427 -159 -727 -62 -224 -59 -200 -68 -535 -5 -218 -4 -241
9 -210 8 19 62 164 120 322 326 884 418 1293 403 1791 -10 317 -60 564 -177
861 -69 176 -205 438 -299 576 -8 11 -11 -8 -11 -67z m158 -422 c16 -51 16
-48 -18 -66 -42 -22 -47 -20 -68 28 l-18 42 40 16 c23 10 44 17 47 18 3 1 11
-16 17 -38z m36 -98 c4 -16 9 -36 12 -46 4 -13 -3 -21 -28 -31 -39 -17 -44
-15 -63 31 -20 49 -19 53 14 53 17 0 33 5 36 10 11 18 23 11 29 -17z m42 -147
c7 -42 -4 -56 -44 -56 -15 0 -26 8 -33 27 -19 52 -16 64 21 77 41 14 46 9 56
-48z m27 -110 c10 -42 5 -51 -34 -61 -23 -6 -27 -2 -37 33 -17 55 -16 60 16
65 42 6 46 3 55 -37z m22 -108 c13 -79 12 -83 -21 -86 -30 -3 -32 0 -43 42
-15 61 -14 64 12 69 43 8 46 7 52 -25z m26 -156 c6 -49 5 -52 -31 -52 -24 0
-28 5 -34 38 -9 57 -8 59 27 58 30 -1 32 -4 38 -44z m12 -114 c7 -49 3 -58
-24 -58 -21 0 -39 35 -39 76 0 20 5 24 29 24 26 0 29 -4 34 -42z m7 -123 c0
-41 -2 -45 -25 -45 -19 0 -25 5 -25 23 0 12 -3 32 -6 45 -6 19 -3 22 25 22 30
0 31 -1 31 -45z m8 -107 c3 -35 1 -38 -22 -38 -14 0 -26 4 -26 9 0 5 -3 23 -6
41 -7 30 -6 31 22 28 26 -3 29 -7 32 -40z m0 -97 c4 -38 -7 -55 -31 -45 -12 4
-17 18 -17 46 0 35 2 39 23 36 17 -2 23 -11 25 -37z m-7 -71 c6 0 9 -15 7 -32
-2 -25 -8 -33 -23 -33 -16 0 -21 8 -23 39 -3 32 -1 38 13 32 9 -3 21 -6 26 -6z
m-1 -130 c0 -33 -3 -40 -20 -40 -17 0 -20 7 -20 40 0 33 3 40 20 40 17 0 20
-7 20 -40z m-9 -72 c-1 -5 -1 -24 -1 -43 0 -28 -4 -35 -20 -35 -21 0 -24 9
-14 59 4 20 12 31 21 29 8 -2 14 -6 14 -10z m-11 -137 c0 -41 -8 -55 -26 -43
-16 10 -5 82 12 82 10 0 14 -12 14 -39z m-12 -92 c3 -30 -13 -58 -27 -44 -12
14 -1 77 13 72 6 -2 12 -14 14 -28z m-16 -105 c-5 -35 -9 -41 -23 -27 -13 13
0 65 15 60 6 -2 9 -17 8 -33z m-17 -93 c-4 -17 -11 -31 -16 -31 -10 0 -12 63
-2 74 14 13 25 -13 18 -43z m-15 -64 c0 -29 -22 -89 -30 -81 -11 11 10 105 22
98 4 -3 8 -11 8 -17z m-55 -224 c-41 -139 -47 -155 -51 -150 -3 3 55 241 67
277 1 3 4 -5 6 -17 2 -13 -7 -62 -22 -110z"/>
<path d="M5290 11114 c0 -8 26 -29 55 -46 20 -11 20 -11 0 11 -22 25 -55 46
-55 35z"/>
<path d="M6310 11081 c-25 -48 3 -100 48 -88 13 4 13 5 -3 6 -47 2 -61 58 -23
85 18 13 19 16 6 16 -10 0 -22 -9 -28 -19z"/>
<path d="M6410 11087 c44 -15 54 -56 18 -81 -12 -9 -17 -16 -11 -16 20 0 43
30 43 55 0 27 -34 55 -65 54 -13 0 -7 -4 15 -12z"/>
<path d="M4212 11064 c-12 -8 -22 -24 -22 -35 0 -16 -4 -19 -20 -14 -43 14
-70 -49 -32 -77 13 -10 17 -27 17 -69 0 -77 22 -103 82 -96 50 5 101 39 109
73 9 35 -14 82 -48 100 l-30 16 21 22 c55 59 -10 127 -77 80z m69 -4 c26 -14
24 -42 -5 -69 -30 -28 -63 -21 -72 16 -5 20 -2 31 16 45 26 21 34 22 61 8z
m-91 -95 c0 -20 -32 -27 -48 -12 -11 12 -12 19 -2 37 11 21 12 21 31 4 10 -9
19 -23 19 -29z m107 -35 c35 -21 52 -63 36 -89 -17 -27 -75 -61 -104 -61 -32
0 -69 40 -69 76 0 78 69 116 137 74z"/>
<path d="M4963 11063 c15 -2 39 -2 55 0 15 2 2 4 -28 4 -30 0 -43 -2 -27 -4z"/>
<path d="M5140 11050 c0 -6 9 -10 20 -10 11 0 36 -7 55 -14 19 -8 35 -11 35
-5 0 5 -3 9 -7 9 -5 0 -29 7 -55 15 -27 8 -48 10 -48 5z"/>
<path d="M5977 11015 c-15 -14 -37 -25 -48 -25 -11 0 -17 -4 -14 -10 11 -18
43 -11 74 16 29 24 40 44 24 44 -5 0 -21 -12 -36 -25z"/>
<path d="M5280 10995 c0 -2 10 -10 23 -16 20 -11 21 -11 8 4 -13 16 -31 23
-31 12z"/>
<path d="M6215 10960 c9 -16 18 -30 21 -30 2 0 -2 14 -11 30 -9 17 -18 30 -21
30 -2 0 2 -13 11 -30z"/>
<path d="M4953 10973 c15 -2 37 -2 50 0 12 2 0 4 -28 4 -27 0 -38 -2 -22 -4z"/>
<path d="M5171 10937 c21 -17 99 -54 99 -46 0 10 -73 49 -91 49 -7 0 -10 -1
-8 -3z"/>
<path d="M6766 10924 c-9 -8 -16 -22 -16 -29 0 -21 29 -45 55 -45 48 0 74 59
36 80 -28 14 -57 12 -75 -6z m74 -24 c0 -29 -32 -42 -59 -24 -28 20 -12 44 30
44 22 0 29 -5 29 -20z"/>
<path d="M5535 10898 c-29 -16 -35 -28 -35 -71 0 -52 25 -96 54 -97 4 0 -2 8
-14 18 -15 12 -24 32 -27 62 -6 54 10 80 52 83 l30 2 -4 -75 c-2 -41 -8 -78
-15 -82 -7 -5 -5 -8 5 -8 13 0 17 16 22 82 6 84 1 98 -33 98 -8 -1 -24 -6 -35
-12z"/>
<path d="M3694 10868 c-4 -15 -1 -25 11 -34 15 -12 15 -14 0 -38 -25 -37 -16
-70 18 -74 27 -3 28 -6 23 -36 -9 -45 11 -95 39 -102 30 -7 45 2 45 27 0 11 9
37 20 59 28 54 25 63 -5 15 -14 -22 -25 -50 -25 -62 0 -28 -14 -37 -39 -24
-47 26 -28 134 25 147 15 4 35 2 46 -5 11 -7 18 -7 18 -1 0 13 -45 24 -70 17
-16 -4 -20 0 -20 18 0 13 -7 28 -16 33 -11 6 -13 11 -5 16 17 11 13 53 -5 60
-30 12 -53 6 -60 -16z m64 -11 c2 -9 -4 -20 -13 -23 -20 -8 -50 19 -40 36 10
17 49 8 53 -13z m12 -86 c0 -40 -61 -56 -68 -18 -6 29 26 59 49 46 11 -5 19
-18 19 -28z"/>
<path d="M4952 10879 c-48 -10 -54 -22 -7 -14 22 4 42 9 44 11 10 9 -6 10 -37
3z"/>
<path d="M5860 10765 c0 -5 5 -17 10 -25 5 -8 10 -10 10 -5 0 6 -5 17 -10 25
-5 8 -10 11 -10 5z"/>
<path d="M5208 10653 c7 -3 16 -2 19 1 4 3 -2 6 -13 5 -11 0 -14 -3 -6 -6z"/>
<path d="M5068 10643 c23 -2 59 -2 80 0 20 2 1 4 -43 4 -44 0 -61 -2 -37 -4z"/>
<path d="M5851 10465 c-1 -88 5 -185 13 -235 8 -47 18 -109 21 -139 l7 -53
-30 22 c-19 14 -39 21 -52 17 -18 -5 -20 -2 -13 16 20 59 -10 120 -67 132
-104 23 -216 -152 -125 -193 37 -17 116 -15 143 4 22 15 22 14 22 -23 0 -22 5
-44 12 -51 19 -19 57 -14 83 12 l24 24 7 -46 c11 -73 -3 -391 -26 -567 -11
-88 -19 -214 -19 -280 l1 -120 18 80 c28 120 68 363 85 515 36 323 5 697 -79
960 l-24 75 -1 -150z m-84 -277 c35 -33 31 -82 -11 -124 -27 -27 -42 -34 -75
-34 -82 0 -117 39 -87 98 39 76 124 106 173 60z m91 -140 c33 -33 -17 -106
-57 -81 -20 13 -27 59 -10 79 14 17 51 18 67 2z"/>
<path d="M4108 10575 c-14 -30 3 -55 37 -55 22 0 36 18 34 43 0 7 -4 2 -9 -10
-11 -26 -32 -30 -50 -8 -18 21 6 48 37 42 13 -2 23 0 23 4 0 5 -14 9 -30 9
-23 0 -33 -6 -42 -25z"/>
<path d="M6461 10569 c-1 -3 12 -44 28 -92 40 -116 86 -323 108 -477 28 -204
23 -525 -17 -890 -53 -497 -52 -771 5 -1035 23 -109 93 -340 100 -333 3 2 -9
51 -26 108 -87 305 -107 634 -63 1049 8 75 23 224 35 331 23 217 27 531 9 690
-16 142 -54 315 -99 447 -36 109 -79 215 -80 202z"/>
<path d="M5068 10553 c23 -2 59 -2 80 0 20 2 1 4 -43 4 -44 0 -61 -2 -37 -4z"/>
<path d="M3690 10459 c-19 -34 -9 -64 23 -67 16 -2 35 2 43 9 19 16 18 65 -2
73 -24 9 -31 7 -11 -5 32 -19 14 -69 -25 -69 -26 0 -33 26 -14 55 9 14 12 25
7 25 -6 0 -15 -9 -21 -21z"/>
<path d="M5068 10463 c23 -2 61 -2 85 0 23 2 4 4 -43 4 -47 0 -66 -2 -42 -4z"/>
<path d="M5566 10438 c-15 -13 -29 -37 -32 -55 -5 -26 -1 -37 21 -58 21 -22
32 -26 57 -21 58 12 85 54 67 106 -19 53 -70 66 -113 28z m84 -8 c39 -39 20
-97 -37 -114 -17 -5 -29 -1 -48 18 -32 32 -31 47 1 85 30 36 56 39 84 11z"/>
<path d="M4076 10409 c-23 -33 -6 -64 34 -64 39 0 56 21 46 58 -5 22 -12 27
-36 27 -18 0 -34 -8 -44 -21z m71 -5 c9 -24 -10 -49 -38 -49 -24 0 -36 23 -25
51 7 19 55 18 63 -2z"/>
<path d="M2145 10409 c-4 -6 -5 -12 -2 -15 2 -3 7 2 10 11 7 17 1 20 -8 4z"/>
<path d="M4592 10368 c3 -24 34 -36 49 -21 12 12 1 43 -14 43 -7 0 -7 -4 1
-12 18 -18 15 -28 -9 -28 -16 0 -20 5 -16 20 3 11 1 20 -5 20 -5 0 -8 -10 -6
-22z"/>
<path d="M5065 10379 l-40 -6 39 -2 c38 -1 38 -2 32 -32 -3 -17 -6 -35 -6 -40
0 -5 -15 -10 -32 -10 -32 -2 -32 -2 -4 -6 26 -4 28 -7 22 -35 -3 -17 -6 -34
-6 -39 0 -5 -10 -10 -22 -10 -19 -1 -19 -2 -5 -6 10 -3 17 -10 14 -16 -2 -7
-14 -42 -26 -79 -20 -61 -26 -68 -49 -69 -24 -2 -24 -2 -4 -6 27 -5 27 -6 3
-57 -10 -23 -24 -56 -31 -73 -8 -22 -19 -33 -34 -34 -17 -1 -17 -2 -3 -6 21
-5 21 -4 1 -46 -10 -21 -23 -34 -33 -32 -9 1 -10 0 -3 -2 15 -5 15 -11 1 -52
-6 -17 -15 -31 -21 -31 -5 0 -7 -4 -4 -9 10 -16 -15 -71 -32 -71 -12 0 -13 -3
-5 -8 9 -6 8 -23 -8 -72 -10 -36 -22 -72 -25 -80 -4 -8 -8 -26 -10 -40 -1 -14
-11 -74 -22 -135 -18 -106 -22 -299 -8 -435 14 -135 56 -330 124 -565 198
-687 221 -896 110 -1014 -34 -37 -14 -33 32 6 24 21 56 57 71 81 26 41 28 42
34 20 8 -24 112 -138 127 -138 5 0 -2 15 -16 33 -44 57 -59 113 -59 222 0 155
40 350 150 730 52 179 99 355 108 400 46 234 58 498 30 670 -10 61 -19 117
-20 125 -1 8 -5 22 -8 30 -6 15 -37 126 -41 145 -2 6 -10 27 -19 49 -21 48
-21 44 6 49 20 4 20 4 -3 6 -31 1 -60 59 -37 73 9 6 8 8 -4 8 -16 0 -39 39
-39 65 0 7 8 16 18 18 9 2 7 3 -6 2 -18 -2 -26 6 -37 33 -18 42 -19 40 3 45
14 4 13 5 -4 6 -20 1 -44 37 -44 66 0 7 12 16 28 18 22 3 20 4 -10 6 -32 1
-37 5 -44 34 -10 40 -9 39 -17 57 -27 63 -27 70 -4 71 21 1 21 1 -3 8 -22 6
-36 30 -39 68 -1 6 14 14 32 16 l32 4 -33 1 c-33 2 -36 5 -46 54 -6 26 -4 27
36 30 l43 3 -45 5 c-25 3 -63 2 -85 -1z m83 -241 c15 -15 16 -45 1 -53 -5 -4
-21 -4 -35 -1 -17 5 -24 13 -24 30 0 33 35 47 58 24z m-48 -83 c10 -12 10 -18
0 -30 -16 -19 -35 -19 -55 1 -12 12 -13 19 -4 30 15 18 43 18 59 -1z m30 -79
c28 -35 -11 -93 -47 -70 -36 22 -23 84 17 84 10 0 23 -7 30 -14z m-70 -176
c38 -38 22 -101 -31 -119 -79 -27 -119 73 -50 126 24 18 59 15 81 -7z m94 -15
c12 -31 -27 -67 -54 -50 -11 7 -14 48 -3 58 12 13 51 7 57 -8z m32 -90 c35
-54 -18 -116 -71 -81 -17 11 -25 25 -25 46 0 58 65 82 96 35z m-151 -69 c24
-17 13 -46 -18 -46 -34 0 -54 25 -37 45 15 19 31 19 55 1z m9 -82 c19 -19 20
-25 4 -46 -17 -21 -39 -27 -60 -16 -22 11 -23 27 -2 56 18 26 37 28 58 6z
m100 -55 c6 -5 -1 -30 -17 -61 -15 -29 -27 -61 -27 -71 0 -24 -46 -23 -60 2
-13 25 -13 87 1 112 18 35 75 45 103 18z m147 -20 c20 -21 29 -42 29 -64 0
-97 -137 -128 -179 -41 -12 26 -12 33 4 63 20 36 69 73 98 73 11 0 32 -14 48
-31z m79 -124 c18 -22 8 -50 -19 -50 -28 0 -47 25 -38 49 8 20 40 21 57 1z
m-62 -51 c47 -33 13 -98 -50 -92 -31 3 -33 5 -32 40 2 63 36 85 82 52z m-149
-19 c31 -15 41 -33 41 -69 0 -19 4 -22 24 -19 26 5 40 -17 30 -49 -8 -27 -48
-20 -52 10 -3 20 -5 20 -18 7 -26 -26 -79 -19 -119 16 -19 17 -35 39 -35 48 0
21 25 46 60 60 34 13 37 13 69 -4z m-161 -17 c19 -19 14 -46 -12 -63 -43 -29
-72 6 -46 56 12 21 40 25 58 7z m-59 -102 c35 -19 51 -55 51 -117 0 -59 -20
-113 -48 -128 -26 -14 -45 -14 -37 -1 4 6 -7 10 -25 10 -45 0 -67 15 -78 52
-21 70 2 158 47 183 33 18 55 18 90 1z m465 -38 c18 -26 20 -65 6 -102 -7 -20
-17 -26 -39 -26 -40 0 -61 24 -61 68 0 47 24 82 55 82 13 0 31 -10 39 -22z
m-242 -15 c28 -32 30 -58 7 -86 -28 -36 -80 -37 -107 -2 -24 30 -19 58 16 85
31 25 64 26 84 3z m32 -129 c10 -26 7 -34 -13 -34 -23 0 -35 15 -27 35 7 20
32 19 40 -1z m-106 -10 c39 -27 22 -74 -26 -74 -36 0 -62 18 -62 43 0 45 45
61 88 31z m16 -96 c-6 -10 -4 -10 7 0 37 34 119 -9 119 -63 0 -31 -27 -75 -46
-75 -8 0 -13 -5 -11 -11 3 -18 -49 -28 -87 -18 -49 14 -86 46 -86 76 0 29 68
103 94 103 11 0 15 -5 10 -12z m161 -178 c35 -39 -4 -95 -63 -88 -21 2 -28 9
-30 31 -7 63 54 100 93 57z m-187 -128 c3 -16 -2 -22 -17 -22 -24 0 -33 13
-25 35 9 23 38 14 42 -13z m119 -4 c31 -29 30 -71 -3 -97 -32 -25 -52 -28 -33
-4 13 15 12 15 -8 5 -12 -7 -29 -9 -37 -6 -22 8 -31 51 -16 69 7 8 9 15 4 15
-16 1 38 40 54 40 9 0 26 -10 39 -22z m-137 -43 c7 -9 3 -25 -15 -56 -13 -24
-25 -54 -25 -65 0 -33 -28 -37 -56 -9 -28 28 -31 63 -8 106 23 45 76 58 104
24z m68 -98 c17 -13 15 -44 -4 -51 -9 -3 -31 -6 -49 -6 -43 0 -52 24 -20 55
24 25 43 25 73 2z m84 -184 c24 -21 25 -99 1 -125 -22 -24 -39 -23 -68 7 -61
60 4 175 67 118z m-104 -71 c3 -16 -2 -22 -17 -22 -24 0 -35 15 -27 36 9 23
40 13 44 -14z m10 -58 c30 -21 26 -61 -10 -87 -23 -17 -31 -19 -53 -9 -31 14
-33 49 -4 86 24 30 36 32 67 10z m103 -61 c11 -31 -14 -57 -42 -42 -27 14 -34
36 -18 55 17 21 50 14 60 -13z m-71 -93 c27 -50 -4 -100 -60 -100 -19 0 -21 3
-11 9 11 7 7 10 -15 13 -51 5 -42 77 10 79 20 0 20 1 1 9 -19 7 -19 8 5 18 29
11 54 1 70 -28z m17 -116 c3 -8 1 -20 -4 -25 -14 -14 -43 0 -43 22 0 24 38 26
47 3z m-8 -73 c13 -8 11 -18 -12 -63 -15 -29 -27 -61 -27 -71 0 -32 -31 -33
-58 -2 -27 32 -26 77 3 121 16 25 66 33 94 15z"/>
<path d="M4878 9093 c7 -3 16 -2 19 1 4 3 -2 6 -13 5 -11 0 -14 -3 -6 -6z"/>
<path d="M4809 9063 c-13 -16 -12 -17 4 -4 16 13 21 21 13 21 -2 0 -10 -8 -17
-17z"/>
<path d="M4930 9076 c0 -2 8 -10 18 -17 15 -13 16 -12 3 4 -13 16 -21 21 -21
13z"/>
<path d="M4883 9013 c-19 -7 -16 -50 4 -57 24 -10 51 20 37 41 -12 19 -23 24
-41 16z"/>
<path d="M5075 8839 c-4 -6 -5 -12 -2 -15 2 -3 7 2 10 11 7 17 1 20 -8 4z"/>
<path d="M5135 8799 c-10 -15 1 -23 20 -15 9 3 13 10 10 16 -8 13 -22 13 -30
-1z"/>
<path d="M5070 8771 c0 -6 4 -13 10 -16 6 -3 7 1 4 9 -7 18 -14 21 -14 7z"/>
<path d="M5107 8729 c7 -7 15 -10 18 -7 3 3 -2 9 -12 12 -14 6 -15 5 -6 -5z"/>
<path d="M5156 8530 c7 -8 14 -24 17 -35 4 -19 5 -19 6 1 0 12 -7 28 -16 35
-16 12 -17 12 -7 -1z"/>
<path d="M5117 8504 c-8 -8 1 -24 14 -24 5 0 9 7 9 15 0 15 -12 20 -23 9z"/>
<path d="M5112 7910 c0 -14 2 -19 5 -12 2 6 2 18 0 25 -3 6 -5 1 -5 -13z"/>
<path d="M4074 10306 c-10 -27 15 -57 44 -54 50 6 36 68 -15 68 -13 0 -26 -6
-29 -14z m50 -2 c23 -9 20 -44 -3 -44 -22 0 -45 25 -36 40 7 11 17 13 39 4z"/>
<path d="M4627 10203 c-187 -465 -291 -948 -317 -1482 -17 -341 13 -755 76
-1065 13 -66 22 -121 20 -123 -11 -11 -98 273 -140 457 l-25 105 0 -98 c-1
-68 5 -124 19 -180 40 -156 123 -423 192 -615 38 -107 67 -197 64 -200 -3 -3
-6 1 -6 8 0 7 -3 11 -6 8 -7 -7 14 -50 30 -60 5 -4 18 -28 27 -55 9 -26 31
-91 49 -143 18 -52 36 -97 40 -100 12 -9 147 -390 199 -561 101 -336 140 -568
148 -874 4 -158 1 -245 -11 -350 -19 -165 -56 -359 -66 -348 -4 4 -20 44 -35
88 -71 204 -195 493 -400 930 -61 132 -125 268 -140 303 l-28 62 -58 0 c-48 0
-57 -3 -53 -15 4 -8 9 -15 14 -15 9 0 40 -96 40 -126 0 -42 -28 -93 -62 -114
-60 -37 -130 -21 -182 40 -14 18 -26 26 -26 20 0 -24 76 -88 116 -99 81 -22
158 24 171 101 3 22 10 35 14 31 5 -5 31 -59 59 -121 69 -154 68 -222 -2 -258
-39 -20 -83 -12 -120 23 -15 15 -28 22 -28 16 0 -19 59 -62 94 -69 44 -8 84
11 112 54 l22 32 21 -62 c29 -90 61 -222 61 -252 0 -45 -27 -94 -61 -111 -27
-14 -39 -15 -71 -6 -44 14 -69 47 -79 105 l-6 41 -2 -40 c-2 -73 57 -135 129
-135 43 0 67 15 87 53 l17 32 8 -40 c4 -22 9 -105 9 -185 2 -169 -19 -276 -76
-397 -45 -92 -136 -207 -214 -268 -34 -26 -61 -50 -61 -52 0 -16 81 48 160
127 80 79 103 110 137 180 62 126 84 220 90 385 4 103 1 170 -11 254 -10 68
-13 118 -8 123 14 14 183 -366 281 -635 37 -100 49 -145 44 -167 -3 -17 -9
-32 -13 -35 -6 -4 -25 47 -34 95 -2 8 -8 28 -14 43 -7 16 -12 33 -12 39 0 6
-3 9 -6 5 -6 -6 -4 -14 36 -144 26 -83 26 -79 -62 -303 -84 -213 -330 -696
-360 -708 -5 -2 -35 -56 -68 -120 -33 -65 -120 -227 -195 -362 -131 -238 -135
-246 -135 -305 l0 -60 86 180 c112 237 326 645 335 640 4 -3 6 3 5 13 0 9 4
16 9 15 16 -2 314 590 370 735 34 87 51 120 56 109 14 -25 77 -353 100 -517
41 -302 37 -812 -7 -1118 -9 -57 -14 -106 -11 -108 5 -6 22 104 42 271 50 428
13 955 -99 1421 -19 77 -21 96 -11 130 12 38 12 39 22 14 19 -46 82 -303 102
-416 52 -293 69 -666 41 -939 -24 -243 -106 -657 -122 -618 -4 10 -5 1 -2 -22
4 -30 3 -36 -5 -25 -12 17 -13 4 -2 -24 13 -34 113 341 150 566 36 220 44 346
38 611 -7 334 -33 515 -128 865 l-42 152 27 121 c47 211 58 305 63 544 10 460
-36 698 -303 1545 -153 485 -151 478 -159 534 -4 27 -13 59 -21 71 -35 53
-126 510 -160 800 -25 208 -25 680 -1 890 45 386 109 680 228 1042 55 167 60
188 57 258 l-3 76 -48 -118z"/>
<path d="M5218 10293 c6 -2 18 -2 25 0 6 3 1 5 -13 5 -14 0 -19 -2 -12 -5z"/>
<path d="M2032 10200 c0 -14 2 -19 5 -12 2 6 2 18 0 25 -3 6 -5 1 -5 -13z"/>
<path d="M4973 10203 c9 -2 25 -2 35 0 9 3 1 5 -18 5 -19 0 -27 -2 -17 -5z"/>
<path d="M5223 10203 c9 -2 23 -2 30 0 6 3 -1 5 -18 5 -16 0 -22 -2 -12 -5z"/>
<path d="M3511 10171 c-6 -11 -11 -33 -11 -49 0 -23 -4 -28 -22 -28 -17 1 -24
-5 -26 -22 -4 -27 23 -40 48 -24 14 9 21 8 30 -3 18 -22 77 -19 90 4 27 52
-12 134 -67 139 -23 2 -34 -2 -42 -17z m72 -9 c45 -50 41 -122 -7 -122 -29 0
-52 25 -61 67 -12 60 31 96 68 55z m-93 -106 c-13 -13 -35 7 -25 24 5 8 11 8
21 -1 10 -8 12 -15 4 -23z"/>
<path d="M4436 10181 c-3 -4 5 -6 19 -4 27 6 75 -35 75 -62 0 -23 -45 -65 -70
-65 -12 0 -33 12 -47 28 -22 23 -24 24 -14 4 28 -52 91 -51 126 2 19 29 13 58
-18 86 -21 20 -62 27 -71 11z"/>
<path d="M4973 10113 c9 -2 25 -2 35 0 9 3 1 5 -18 5 -19 0 -27 -2 -17 -5z"/>
<path d="M5223 10113 c9 -2 25 -2 35 0 9 3 1 5 -18 5 -19 0 -27 -2 -17 -5z"/>
<path d="M4918 10033 c6 -2 18 -2 25 0 6 3 1 5 -13 5 -14 0 -19 -2 -12 -5z"/>
<path d="M5298 10033 c7 -3 16 -2 19 1 4 3 -2 6 -13 5 -11 0 -14 -3 -6 -6z"/>
<path d="M4913 9943 c9 -2 23 -2 30 0 6 3 -1 5 -18 5 -16 0 -22 -2 -12 -5z"/>
<path d="M5298 9943 c6 -2 18 -2 25 0 6 3 1 5 -13 5 -14 0 -19 -2 -12 -5z"/>
<path d="M5758 9913 c-9 -10 -22 -31 -31 -48 l-15 -30 1 35 c2 31 -1 35 -23
35 -20 0 -25 -5 -25 -25 0 -16 -9 -31 -27 -42 -75 -48 -20 -197 60 -162 9 4
24 6 34 5 30 -4 88 27 88 46 0 45 -65 59 -100 21 -23 -25 -24 -20 -9 33 l12
38 28 -21 c45 -34 119 1 119 56 0 59 -76 99 -112 59z m81 -19 c26 -33 26 -49
1 -74 -22 -22 -69 -27 -88 -8 -28 28 7 108 48 108 10 0 28 -12 39 -26z m-131
-12 c2 -7 -6 -12 -17 -12 -21 0 -27 11 -14 24 9 9 26 2 31 -12z m-6 -72 c-2
-14 -5 -47 -6 -75 -3 -41 -8 -51 -24 -53 -49 -8 -74 111 -29 143 33 23 63 16
59 -15z m96 -62 c19 -19 15 -27 -24 -43 -38 -16 -54 -13 -54 10 0 35 53 58 78
33z"/>
<path d="M4868 9863 c7 -3 16 -2 19 1 4 3 -2 6 -13 5 -11 0 -14 -3 -6 -6z"/>
<path d="M5348 9863 c7 -3 16 -2 19 1 4 3 -2 6 -13 5 -11 0 -14 -3 -6 -6z"/>
<path d="M4828 9783 c7 -3 16 -2 19 1 4 3 -2 6 -13 5 -11 0 -14 -3 -6 -6z"/>
<path d="M5358 9773 c7 -3 16 -2 19 1 4 3 -2 6 -13 5 -11 0 -14 -3 -6 -6z"/>
<path d="M4800 9700 c8 -5 22 -9 30 -9 10 0 8 3 -5 9 -27 12 -43 12 -25 0z"/>
<path d="M5416 9690 c22 -8 40 -53 29 -70 -4 -6 -2 -10 3 -10 17 0 25 -72 10
-81 -10 -7 -9 -9 5 -9 9 0 17 -2 17 -5 0 -3 9 -45 19 -93 11 -48 22 -111 26
-141 3 -30 8 -58 10 -61 3 -4 7 -74 11 -156 9 -211 -6 -348 -70 -644 -3 -14
12 28 34 93 77 231 118 534 106 782 l-6 129 -40 61 c-22 33 -40 53 -40 45 -1
-8 -7 2 -15 23 -20 59 -83 147 -103 146 -14 0 -13 -2 4 -9z"/>
<path d="M3782 9628 c-7 -7 -12 -20 -12 -29 0 -43 72 -53 78 -11 6 42 -37 69
-66 40z m46 -10 c17 -17 15 -48 -2 -48 -27 0 -46 12 -46 29 0 32 26 41 48 19z"/>
<path d="M5408 9603 c7 -3 16 -2 19 1 4 3 -2 6 -13 5 -11 0 -14 -3 -6 -6z"/>
<path d="M3372 9388 c-11 -24 -23 -57 -27 -75 -8 -40 9 -105 35 -128 20 -18
20 -18 20 113 0 73 -2 132 -4 132 -2 0 -13 -19 -24 -42z"/>
<path d="M4562 9300 c0 -14 2 -19 5 -12 2 6 2 18 0 25 -3 6 -5 1 -5 -13z"/>
<path d="M4532 9135 c0 -16 2 -22 5 -12 2 9 2 23 0 30 -3 6 -5 -1 -5 -18z"/>
<path d="M4512 9005 c0 -16 2 -22 5 -12 2 9 2 23 0 30 -3 6 -5 -1 -5 -18z"/>
<path d="M5936 8928 c-30 -43 -11 -88 36 -88 7 0 2 6 -12 13 -30 15 -37 48
-15 71 32 32 135 10 135 -29 0 -19 -48 -55 -73 -55 -11 0 -18 -3 -14 -6 12
-12 68 9 83 31 31 47 -8 85 -86 85 -29 0 -43 -6 -54 -22z"/>
<path d="M4492 8835 c0 -16 2 -22 5 -12 2 9 2 23 0 30 -3 6 -5 -1 -5 -18z"/>
<path d="M4472 8650 c0 -19 2 -27 5 -17 2 9 2 25 0 35 -3 9 -5 1 -5 -18z"/>
<path d="M4463 8495 c0 -27 2 -38 4 -22 2 15 2 37 0 50 -2 12 -4 0 -4 -28z"/>
<path d="M4463 8340 c0 -25 2 -35 4 -22 2 12 2 32 0 45 -2 12 -4 2 -4 -23z"/>
<path d="M3899 8344 c-7 -9 -13 -31 -13 -49 0 -64 45 -85 89 -40 30 29 32 65
7 88 -23 21 -66 22 -83 1z m77 -15 c17 -19 17 -23 3 -47 -11 -20 -23 -27 -44
-27 -27 0 -30 4 -33 33 -6 58 37 82 74 41z"/>
<path d="M6390 8330 c-6 -12 -10 -38 -8 -58 3 -34 6 -37 35 -40 59 -6 97 63
55 101 -26 24 -69 22 -82 -3z m71 0 c42 -23 7 -95 -43 -88 -18 2 -24 10 -26
36 -5 53 24 75 69 52z"/>
<path d="M5449 8191 c-46 -46 -50 -77 -13 -120 22 -26 33 -31 71 -31 36 0 50
6 74 29 33 33 37 67 14 111 -32 63 -90 67 -146 11z m125 -2 c53 -62 17 -139
-64 -139 -30 0 -47 6 -65 25 -35 34 -32 68 10 110 46 45 83 47 119 4z"/>
<path d="M4462 8155 c0 -16 2 -22 5 -12 2 9 2 23 0 30 -3 6 -5 -1 -5 -18z"/>
<path d="M6310 8122 c0 -6 9 -8 20 -5 14 4 20 0 20 -12 0 -12 -6 -16 -20 -12
-11 3 -20 1 -20 -4 0 -5 12 -9 26 -9 21 0 25 4 22 23 -2 14 -11 23 -25 25 -13
2 -23 -1 -23 -6z"/>
<path d="M4463 8010 c0 -25 2 -35 4 -22 2 12 2 32 0 45 -2 12 -4 2 -4 -23z"/>
<path d="M4560 8031 c-7 -15 -6 -24 6 -36 21 -21 68 -16 72 8 8 42 -57 66 -78
28z m60 -6 c15 -18 5 -35 -20 -35 -22 0 -34 15 -26 35 7 19 30 19 46 0z"/>
<path d="M6222 8028 c-7 -7 -12 -16 -12 -22 0 -5 6 -1 14 10 12 15 18 17 33 8
10 -6 19 -21 21 -33 3 -16 -2 -21 -20 -21 -13 0 -30 6 -37 13 -11 10 -13 9 -9
-3 3 -10 18 -15 41 -15 38 0 41 -3 32 -27 -4 -9 -18 -12 -43 -10 -45 4 -69
-17 -77 -69 -5 -33 -5 -32 8 6 13 42 49 64 82 51 13 -5 15 -12 9 -34 -4 -15
-9 -47 -10 -72 -1 -33 -6 -46 -18 -48 -20 -4 -45 15 -56 43 -7 17 -9 17 -9 3
-2 -38 66 -76 84 -48 4 6 14 8 23 6 25 -8 97 20 100 39 5 24 -17 45 -47 45
-31 0 -44 -8 -59 -35 -11 -20 -11 -20 -12 1 0 12 5 35 11 53 10 29 13 31 28
17 29 -26 86 -20 110 10 12 15 21 34 21 44 0 10 -9 29 -21 44 -25 32 -64 34
-96 4 l-23 -21 0 21 c0 23 -24 52 -44 52 -6 0 -17 -5 -24 -12z m178 -48 c11
-11 20 -29 20 -40 0 -49 -74 -78 -112 -43 -23 20 -23 30 2 71 23 38 59 43 90
12z m-40 -155 c16 -19 10 -25 -35 -41 -37 -12 -45 -10 -45 16 0 37 55 55 80
25z"/>
<path d="M4596 7954 c-32 -31 -14 -84 29 -84 28 0 45 19 45 50 0 47 -42 66
-74 34z m54 -9 c26 -31 -13 -82 -44 -56 -21 18 -20 48 2 60 23 14 28 13 42 -4z"/>
<path d="M4473 7850 c0 -25 2 -35 4 -22 2 12 2 32 0 45 -2 12 -4 2 -4 -23z"/>
<path d="M4614 7756 c-9 -36 1 -56 29 -56 31 0 50 22 45 52 -2 18 -10 24 -35
26 -28 3 -33 -1 -39 -22z m62 -1 c7 -18 -13 -45 -33 -45 -17 0 -27 24 -19 45
7 20 45 19 52 0z"/>
<path d="M4231 7734 c0 -11 3 -14 6 -6 3 7 2 16 -1 19 -3 4 -6 -2 -5 -13z"/>
<path d="M4481 7714 c0 -11 3 -14 6 -6 3 7 2 16 -1 19 -3 4 -6 -2 -5 -13z"/>
<path d="M6690 7725 c0 -5 5 -17 10 -25 5 -8 10 -10 10 -5 0 6 -5 17 -10 25
-5 8 -10 11 -10 5z"/>
<path d="M4492 7660 c0 -14 2 -19 5 -12 2 6 2 18 0 25 -3 6 -5 1 -5 -13z"/>
<path d="M2971 7584 c0 -11 3 -14 6 -6 3 7 2 16 -1 19 -3 4 -6 -2 -5 -13z"/>
<path d="M4501 7554 c0 -11 3 -14 6 -6 3 7 2 16 -1 19 -3 4 -6 -2 -5 -13z"/>
<path d="M4512 7500 c0 -14 2 -19 5 -12 2 6 2 18 0 25 -3 6 -5 1 -5 -13z"/>
<path d="M4532 7375 c0 -16 2 -22 5 -12 2 9 2 23 0 30 -3 6 -5 -1 -5 -18z"/>
<path d="M4370 7315 c0 -5 5 -17 10 -25 5 -8 10 -10 10 -5 0 6 -5 17 -10 25
-5 8 -10 11 -10 5z"/>
<path d="M5881 7029 c-42 -128 -43 -133 -36 -222 4 -51 23 -216 43 -367 33
-254 36 -295 36 -540 1 -253 -1 -271 -27 -395 -26 -122 -84 -310 -122 -400
-16 -35 -19 -38 -26 -20 -6 16 -8 12 -7 -15 0 -19 -2 -51 -6 -70 -7 -32 -6
-33 7 -17 14 17 16 15 23 -25 4 -24 9 -38 11 -31 2 6 0 28 -6 48 -8 31 -5 45
28 118 138 297 193 543 192 857 0 178 -3 212 -42 540 -17 140 -22 245 -23 427
-1 134 -1 243 -1 243 0 0 -20 -59 -44 -131z"/>
<path d="M4397 6843 c-14 -14 -6 -42 14 -48 27 -9 43 7 34 34 -6 20 -34 28
-48 14z m29 -31 c-22 -5 -30 3 -21 18 5 8 11 7 22 -2 15 -12 14 -13 -1 -16z"/>
<path d="M7912 6830 c0 -14 2 -19 5 -12 2 6 2 18 0 25 -3 6 -5 1 -5 -13z"/>
<path d="M5731 6554 c0 -11 3 -14 6 -6 3 7 2 16 -1 19 -3 4 -6 -2 -5 -13z"/>
<path d="M5722 6490 c0 -14 2 -19 5 -12 2 6 2 18 0 25 -3 6 -5 1 -5 -13z"/>
<path d="M5185 6445 c-14 -13 -25 -36 -25 -50 0 -32 33 -65 65 -65 15 0 25 -6
25 -15 0 -17 36 -39 50 -30 16 10 12 43 -6 53 -11 6 -13 11 -5 16 6 4 11 14
11 23 0 11 -6 8 -21 -11 -24 -31 -68 -35 -92 -8 -25 28 -20 57 14 86 17 14 25
26 19 26 -6 0 -22 -11 -35 -25z m115 -128 c0 -8 -3 -17 -7 -20 -9 -9 -34 13
-27 24 8 14 34 11 34 -4z"/>
<path d="M5262 6458 c8 -7 20 -22 26 -33 9 -15 11 -16 12 -4 0 16 -30 49 -45
49 -5 0 -2 -6 7 -12z"/>
<path d="M5712 6420 c0 -14 2 -19 5 -12 2 6 2 18 0 25 -3 6 -5 1 -5 -13z"/>
<path d="M5702 6335 c0 -16 2 -22 5 -12 2 9 2 23 0 30 -3 6 -5 -1 -5 -18z"/>
<path d="M2506 6300 c4 -19 11 -44 15 -55 6 -14 7 -9 3 15 -4 19 -11 44 -15
55 -6 14 -7 9 -3 -15z"/>
<path d="M4568 6299 c-22 -12 -33 -71 -19 -98 16 -29 56 -27 86 4 30 29 32 58
5 85 -22 22 -46 25 -72 9z m72 -29 c19 -35 -29 -90 -66 -76 -14 6 -20 76 -7
89 15 15 63 7 73 -13z"/>
<path d="M5692 6240 c0 -19 2 -27 5 -17 2 9 2 25 0 35 -3 9 -5 1 -5 -18z"/>
<path d="M5201 6234 c-27 -35 -29 -104 -3 -127 25 -23 62 -22 61 1 0 10 -3 12
-6 5 -7 -20 -41 -15 -53 6 -15 29 -12 83 6 109 11 15 25 22 50 22 44 0 51 -18
25 -61 -12 -19 -21 -41 -21 -49 0 -8 12 9 26 37 33 64 28 83 -25 83 -31 0 -44
-6 -60 -26z"/>
<path d="M2541 6174 c0 -11 3 -14 6 -6 3 7 2 16 -1 19 -3 4 -6 -2 -5 -13z"/>
<path d="M5683 6115 c0 -27 2 -38 4 -22 2 15 2 37 0 50 -2 12 -4 0 -4 -28z"/>
<path d="M5674 5830 c0 -91 2 -128 3 -82 2 45 2 119 0 165 -1 45 -3 8 -3 -83z"/>
<path d="M4218 5923 c17 -2 47 -2 65 0 17 2 3 4 -33 4 -36 0 -50 -2 -32 -4z"/>
<path d="M4600 5831 c-12 -24 -13 -71 -1 -90 12 -19 58 -17 81 4 29 26 34 53
16 80 -21 32 -80 35 -96 6z m78 -3 c29 -29 -1 -88 -44 -88 -29 0 -42 40 -25
76 12 26 48 33 69 12z"/>
<path d="M5683 5545 c0 -27 2 -38 4 -22 2 15 2 37 0 50 -2 12 -4 0 -4 -28z"/>
<path d="M5693 5430 c0 -30 2 -43 4 -27 2 15 2 39 0 55 -2 15 -4 2 -4 -28z"/>
<path d="M4921 5374 c0 -11 3 -14 6 -6 3 7 2 16 -1 19 -3 4 -6 -2 -5 -13z"/>
<path d="M5703 5335 c0 -22 2 -30 4 -17 2 12 2 30 0 40 -3 9 -5 -1 -4 -23z"/>
<path d="M5712 5260 c0 -19 2 -27 5 -17 2 9 2 25 0 35 -3 9 -5 1 -5 -18z"/>
<path d="M5722 5195 c0 -16 2 -22 5 -12 2 9 2 23 0 30 -3 6 -5 -1 -5 -18z"/>
<path d="M5732 5135 c0 -16 2 -22 5 -12 2 9 2 23 0 30 -3 6 -5 -1 -5 -18z"/>
<path d="M4572 5120 c24 -64 61 -150 64 -147 5 4 -53 148 -63 156 -3 3 -4 -1
-1 -9z"/>
<path d="M4921 4994 c0 -11 3 -14 6 -6 3 7 2 16 -1 19 -3 4 -6 -2 -5 -13z"/>
<path d="M5196 4948 l-20 -36 39 -189 c43 -216 97 -446 224 -968 102 -417 158
-684 195 -925 38 -247 42 -320 22 -375 -34 -87 -111 -119 -183 -75 -43 26 -66
64 -74 119 l-6 46 -2 -48 c0 -28 6 -64 16 -84 18 -38 71 -78 118 -87 41 -9
113 29 135 71 l17 33 7 -53 c3 -28 6 -96 6 -150 0 -111 -19 -164 -65 -185 -34
-16 -50 -15 -85 3 -35 18 -51 45 -61 100 l-6 40 -2 -43 c-2 -80 47 -132 124
-132 27 0 44 8 67 31 l31 31 -7 -124 c-4 -68 -11 -141 -17 -162 -15 -56 -58
-96 -104 -96 -65 0 -93 28 -106 105 l-6 40 -2 -45 c-3 -119 128 -175 202 -86
18 21 18 21 12 -14 -23 -158 -51 -309 -76 -411 -16 -66 -29 -123 -28 -127 2
-29 56 174 88 334 52 263 75 588 61 874 -22 436 -67 696 -280 1620 -65 283
-135 598 -155 700 -20 102 -41 212 -48 244 l-12 60 -19 -36z"/>
<path d="M4646 4940 c4 -14 15 -43 25 -65 11 -22 16 -29 13 -15 -4 14 -15 43
-25 65 -11 22 -16 29 -13 15z"/>
<path d="M5648 4839 c-25 -49 -45 -89 -43 -89 9 0 96 154 93 166 -2 7 -24 -27
-50 -77z"/>
<path d="M5781 4894 c0 -11 3 -14 6 -6 3 7 2 16 -1 19 -3 4 -6 -2 -5 -13z"/>
<path d="M5791 4854 c0 -11 3 -14 6 -6 3 7 2 16 -1 19 -3 4 -6 -2 -5 -13z"/>
<path d="M4696 4810 c4 -14 13 -38 20 -55 11 -24 13 -25 8 -5 -4 14 -13 39
-20 55 -11 24 -13 25 -8 5z"/>
<path d="M5801 4820 c0 -8 4 -24 9 -35 5 -13 9 -14 9 -5 0 8 -4 24 -9 35 -5
13 -9 14 -9 5z"/>
<path d="M5330 4755 c-6 -8 -10 -20 -7 -27 4 -9 6 -7 6 4 1 25 38 32 66 14 32
-21 32 -40 0 -71 -33 -34 -53 -31 -70 8 -8 17 -14 25 -15 16 0 -9 8 -27 19
-40 17 -21 21 -22 50 -9 29 12 51 43 51 71 0 18 -40 49 -64 49 -13 0 -29 -7
-36 -15z"/>
<path d="M5821 4750 c0 -8 4 -24 9 -35 5 -13 9 -14 9 -5 0 8 -4 24 -9 35 -5
13 -9 14 -9 5z"/>
<path d="M4734 4703 c21 -67 65 -186 65 -177 1 13 -57 185 -65 193 -4 3 -3 -4
0 -16z"/>
<path d="M5901 4509 c-1 -3 8 -32 19 -65 11 -32 20 -68 20 -78 0 -30 210 -416
226 -416 3 0 -3 15 -14 33 -65 107 -111 200 -169 337 -80 194 -82 196 -82 189z"/>
<path d="M4154 4074 c-18 -14 -18 -15 4 -4 12 6 22 13 22 15 0 8 -5 6 -26 -11z"/>
<path d="M4952 2415 c0 -16 2 -22 5 -12 2 9 2 23 0 30 -3 6 -5 -1 -5 -18z"/>
<path d="M4941 2364 c0 -11 3 -14 6 -6 3 7 2 16 -1 19 -3 4 -6 -2 -5 -13z"/>
<path d="M4915 2223 c2 -2 -4 -25 -11 -50 -19 -62 -11 -67 10 -7 9 27 12 51 8
55 -5 3 -8 5 -7 2z"/>
<path d="M5465 1859 c-4 -6 -5 -12 -2 -15 2 -3 7 2 10 11 7 17 1 20 -8 4z"/>
<path d="M5541 1099 c-7 -22 -11 -43 -8 -45 2 -2 9 14 16 37 7 22 11 43 8 45
-2 2 -9 -14 -16 -37z"/>
</g>
</svg>
